<mxfile host="app.diagrams.net" modified="2021-10-26T07:21:34.317Z" agent="5.0 (Windows)" etag="qi5pNQFzX9Ixml8F_iF8" version="15.5.8" type="github">
  <diagram id="kgpKYQtTHZ0yAKxKKP6v" name="Page-1">
    <mxGraphModel dx="2262" dy="810" grid="1" gridSize="10" guides="1" tooltips="1" connect="1" arrows="1" fold="1" page="1" pageScale="1" pageWidth="850" pageHeight="1100" math="0" shadow="0">
      <root>
        <mxCell id="0" />
        <mxCell id="1" parent="0" />
        <mxCell id="3WGhXrrfseAbKHN0i4dS-6" value="WB" style="rounded=0;whiteSpace=wrap;html=1;" parent="1" vertex="1">
          <mxGeometry x="-10" y="290" width="20" height="30" as="geometry" />
        </mxCell>
        <mxCell id="3WGhXrrfseAbKHN0i4dS-5" value="M" style="rounded=0;whiteSpace=wrap;html=1;" parent="1" vertex="1">
          <mxGeometry x="-10" y="320" width="20" height="30" as="geometry" />
        </mxCell>
        <mxCell id="3WGhXrrfseAbKHN0i4dS-7" value="EX" style="rounded=0;whiteSpace=wrap;html=1;" parent="1" vertex="1">
          <mxGeometry x="-10" y="350" width="20" height="30" as="geometry" />
        </mxCell>
        <mxCell id="3WGhXrrfseAbKHN0i4dS-8" value="" style="rounded=0;whiteSpace=wrap;html=1;" parent="1" vertex="1">
          <mxGeometry x="-10" y="380" width="20" height="390" as="geometry" />
        </mxCell>
        <mxCell id="3WGhXrrfseAbKHN0i4dS-10" value="WB" style="rounded=0;whiteSpace=wrap;html=1;" parent="1" vertex="1">
          <mxGeometry x="230" y="321" width="20" height="30" as="geometry" />
        </mxCell>
        <mxCell id="3WGhXrrfseAbKHN0i4dS-11" value="M" style="rounded=0;whiteSpace=wrap;html=1;" parent="1" vertex="1">
          <mxGeometry x="230" y="351" width="20" height="30" as="geometry" />
        </mxCell>
        <mxCell id="3WGhXrrfseAbKHN0i4dS-12" value="" style="rounded=0;whiteSpace=wrap;html=1;" parent="1" vertex="1">
          <mxGeometry x="230" y="381" width="20" height="390" as="geometry" />
        </mxCell>
        <mxCell id="3WGhXrrfseAbKHN0i4dS-14" value="WB" style="rounded=0;whiteSpace=wrap;html=1;" parent="1" vertex="1">
          <mxGeometry x="549.52" y="350" width="20" height="30" as="geometry" />
        </mxCell>
        <mxCell id="3WGhXrrfseAbKHN0i4dS-15" value="" style="rounded=0;whiteSpace=wrap;html=1;" parent="1" vertex="1">
          <mxGeometry x="549.52" y="380" width="20" height="390" as="geometry" />
        </mxCell>
        <mxCell id="3WGhXrrfseAbKHN0i4dS-16" value="" style="rounded=0;whiteSpace=wrap;html=1;" parent="1" vertex="1">
          <mxGeometry x="-261" y="384" width="20" height="386" as="geometry" />
        </mxCell>
        <mxCell id="3WGhXrrfseAbKHN0i4dS-17" value="Register" style="whiteSpace=wrap;html=1;aspect=fixed;" parent="1" vertex="1">
          <mxGeometry x="-136" y="514" width="86" height="86" as="geometry" />
        </mxCell>
        <mxCell id="3WGhXrrfseAbKHN0i4dS-22" value="&lt;div&gt;Imm&lt;/div&gt;&lt;div&gt;Gen&lt;br&gt;&lt;/div&gt;" style="ellipse;whiteSpace=wrap;html=1;" parent="1" vertex="1">
          <mxGeometry x="-153" y="625" width="35" height="50" as="geometry" />
        </mxCell>
        <mxCell id="3WGhXrrfseAbKHN0i4dS-24" value="ROM" style="whiteSpace=wrap;html=1;aspect=fixed;" parent="1" vertex="1">
          <mxGeometry x="-360" y="514" width="76" height="76" as="geometry" />
        </mxCell>
        <mxCell id="3WGhXrrfseAbKHN0i4dS-25" value="&lt;font style=&quot;font-size: 8px&quot;&gt;Address&lt;/font&gt;" style="text;html=1;strokeColor=none;fillColor=none;align=center;verticalAlign=middle;whiteSpace=wrap;rounded=0;" parent="1" vertex="1">
          <mxGeometry x="-361" y="514" width="40" height="20" as="geometry" />
        </mxCell>
        <mxCell id="3WGhXrrfseAbKHN0i4dS-27" value="PC" style="rounded=0;whiteSpace=wrap;html=1;" parent="1" vertex="1">
          <mxGeometry x="-438" y="500" width="20" height="45" as="geometry" />
        </mxCell>
        <mxCell id="3WGhXrrfseAbKHN0i4dS-30" value="MUX" style="strokeWidth=2;html=1;shape=mxgraph.flowchart.terminator;whiteSpace=wrap;rotation=90;" parent="1" vertex="1">
          <mxGeometry x="-434.96" y="350" width="69.91" height="20" as="geometry" />
        </mxCell>
        <mxCell id="3WGhXrrfseAbKHN0i4dS-35" value="&lt;font style=&quot;font-size: 8px&quot;&gt;MUX&lt;/font&gt;" style="strokeWidth=2;html=1;shape=mxgraph.flowchart.terminator;whiteSpace=wrap;rotation=90;" parent="1" vertex="1">
          <mxGeometry x="-334.69" y="381.69" width="32.07" height="20" as="geometry" />
        </mxCell>
        <mxCell id="3WGhXrrfseAbKHN0i4dS-36" value="&lt;div style=&quot;font-size: 7px&quot;&gt;PcBranch&lt;/div&gt;" style="endArrow=blockThin;html=1;verticalAlign=middle;endFill=1;" parent="1" edge="1">
          <mxGeometry width="50" height="50" relative="1" as="geometry">
            <mxPoint x="-328.66" y="385" as="sourcePoint" />
            <mxPoint x="-390" y="384" as="targetPoint" />
          </mxGeometry>
        </mxCell>
        <mxCell id="3WGhXrrfseAbKHN0i4dS-39" value="&amp;nbsp;&amp;nbsp;&amp;nbsp; Add" style="shape=step;perimeter=stepPerimeter;whiteSpace=wrap;html=1;fixedSize=1;align=left;size=10;" parent="1" vertex="1">
          <mxGeometry x="-348.66" y="417" width="50" height="40" as="geometry" />
        </mxCell>
        <mxCell id="3WGhXrrfseAbKHN0i4dS-42" value="" style="endArrow=none;html=1;align=left;" parent="1" edge="1">
          <mxGeometry width="50" height="50" relative="1" as="geometry">
            <mxPoint x="-363.65999999999997" y="428" as="sourcePoint" />
            <mxPoint x="-343.66" y="427.5" as="targetPoint" />
          </mxGeometry>
        </mxCell>
        <mxCell id="3WGhXrrfseAbKHN0i4dS-43" value="4" style="text;html=1;align=center;verticalAlign=middle;resizable=0;points=[];autosize=1;strokeColor=none;" parent="1" vertex="1">
          <mxGeometry x="-377.65999999999997" y="417" width="20" height="20" as="geometry" />
        </mxCell>
        <mxCell id="3WGhXrrfseAbKHN0i4dS-29" value="PcOut" style="endArrow=blockThin;html=1;verticalAlign=middle;fontSize=8;endFill=1;exitX=1;exitY=0.5;exitDx=0;exitDy=0;entryX=0.019;entryY=0.434;entryDx=0;entryDy=0;entryPerimeter=0;" parent="1" edge="1" target="3WGhXrrfseAbKHN0i4dS-25" source="3WGhXrrfseAbKHN0i4dS-27">
          <mxGeometry width="50" height="50" relative="1" as="geometry">
            <mxPoint x="-411" y="523" as="sourcePoint" />
            <mxPoint x="-365.79999999999995" y="522.5999999999999" as="targetPoint" />
          </mxGeometry>
        </mxCell>
        <mxCell id="3WGhXrrfseAbKHN0i4dS-45" value="" style="endArrow=blockThin;html=1;fontSize=8;align=left;entryX=0;entryY=0.75;entryDx=0;entryDy=0;endFill=1;" parent="1" target="3WGhXrrfseAbKHN0i4dS-39" edge="1">
          <mxGeometry width="50" height="50" relative="1" as="geometry">
            <mxPoint x="-379" y="520" as="sourcePoint" />
            <mxPoint x="-329" y="426" as="targetPoint" />
            <Array as="points">
              <mxPoint x="-379" y="445" />
            </Array>
          </mxGeometry>
        </mxCell>
        <mxCell id="3WGhXrrfseAbKHN0i4dS-69" style="edgeStyle=orthogonalEdgeStyle;rounded=0;orthogonalLoop=1;jettySize=auto;html=1;exitX=0.11;exitY=0.11;exitDx=0;exitDy=0;fontSize=8;align=left;endArrow=blockThin;endFill=1;exitPerimeter=0;entryX=-0.021;entryY=0.638;entryDx=0;entryDy=0;entryPerimeter=0;" parent="1" source="gq7fBsmWnAXoDukaiIT1-74" target="3WGhXrrfseAbKHN0i4dS-6" edge="1">
          <mxGeometry relative="1" as="geometry">
            <mxPoint x="-10" y="307" as="targetPoint" />
          </mxGeometry>
        </mxCell>
        <mxCell id="3WGhXrrfseAbKHN0i4dS-70" value="&lt;div align=&quot;left&quot;&gt;&lt;br&gt;&lt;/div&gt;" style="edgeStyle=orthogonalEdgeStyle;rounded=0;orthogonalLoop=1;jettySize=auto;html=1;exitX=0.5;exitY=0;exitDx=0;exitDy=0;entryX=0;entryY=0.5;entryDx=0;entryDy=0;fontSize=8;align=left;endArrow=blockThin;endFill=1;exitPerimeter=0;" parent="1" source="gq7fBsmWnAXoDukaiIT1-74" target="3WGhXrrfseAbKHN0i4dS-5" edge="1">
          <mxGeometry relative="1" as="geometry" />
        </mxCell>
        <mxCell id="3WGhXrrfseAbKHN0i4dS-71" style="edgeStyle=orthogonalEdgeStyle;rounded=0;orthogonalLoop=1;jettySize=auto;html=1;exitX=0.89;exitY=0.11;exitDx=0;exitDy=0;entryX=-0.005;entryY=0.353;entryDx=0;entryDy=0;entryPerimeter=0;fontSize=8;align=left;endArrow=blockThin;endFill=1;exitPerimeter=0;" parent="1" source="gq7fBsmWnAXoDukaiIT1-74" target="3WGhXrrfseAbKHN0i4dS-7" edge="1">
          <mxGeometry relative="1" as="geometry" />
        </mxCell>
        <mxCell id="3WGhXrrfseAbKHN0i4dS-177" value="SigEXID" style="edgeLabel;html=1;align=center;verticalAlign=middle;resizable=0;points=[];fontSize=6;fontColor=#000000;" parent="3WGhXrrfseAbKHN0i4dS-71" vertex="1" connectable="0">
          <mxGeometry x="0.0378" y="1" relative="1" as="geometry">
            <mxPoint x="-4" y="-4" as="offset" />
          </mxGeometry>
        </mxCell>
        <mxCell id="3WGhXrrfseAbKHN0i4dS-72" style="edgeStyle=orthogonalEdgeStyle;rounded=0;orthogonalLoop=1;jettySize=auto;html=1;exitX=0.5;exitY=1;exitDx=0;exitDy=0;entryX=0.017;entryY=0.076;entryDx=0;entryDy=0;entryPerimeter=0;fontSize=8;align=left;endArrow=blockThin;endFill=1;" parent="1" source="3WGhXrrfseAbKHN0i4dS-68" target="3WGhXrrfseAbKHN0i4dS-8" edge="1">
          <mxGeometry relative="1" as="geometry" />
        </mxCell>
        <mxCell id="3WGhXrrfseAbKHN0i4dS-176" value="SigAluOpID" style="edgeLabel;html=1;align=center;verticalAlign=middle;resizable=0;points=[];fontSize=8;fontColor=#000000;" parent="3WGhXrrfseAbKHN0i4dS-72" vertex="1" connectable="0">
          <mxGeometry x="0.1745" y="-1" relative="1" as="geometry">
            <mxPoint x="-37" as="offset" />
          </mxGeometry>
        </mxCell>
        <mxCell id="3WGhXrrfseAbKHN0i4dS-68" value="&lt;font style=&quot;font-size: 11px&quot;&gt;&amp;nbsp; Decoder&lt;/font&gt;" style="ellipse;whiteSpace=wrap;html=1;fontSize=8;align=left;" parent="1" vertex="1">
          <mxGeometry x="-162" y="295" width="59" height="80" as="geometry" />
        </mxCell>
        <mxCell id="3WGhXrrfseAbKHN0i4dS-77" value="" style="endArrow=none;html=1;fontSize=8;align=left;" parent="1" edge="1">
          <mxGeometry width="50" height="50" relative="1" as="geometry">
            <mxPoint x="-220" y="730" as="sourcePoint" />
            <mxPoint x="-220" y="330" as="targetPoint" />
          </mxGeometry>
        </mxCell>
        <mxCell id="3WGhXrrfseAbKHN0i4dS-80" value="" style="endArrow=blockThin;html=1;fontSize=8;align=left;entryX=0;entryY=0;entryDx=0;entryDy=0;endFill=1;" parent="1" edge="1">
          <mxGeometry width="50" height="50" relative="1" as="geometry">
            <mxPoint x="-220" y="520" as="sourcePoint" />
            <mxPoint x="-135.9999999999999" y="520" as="targetPoint" />
          </mxGeometry>
        </mxCell>
        <mxCell id="3WGhXrrfseAbKHN0i4dS-189" value="Rs1" style="edgeLabel;html=1;align=center;verticalAlign=middle;resizable=0;points=[];fontSize=6;fontColor=#000000;" parent="3WGhXrrfseAbKHN0i4dS-80" vertex="1" connectable="0">
          <mxGeometry x="-0.3737" relative="1" as="geometry">
            <mxPoint as="offset" />
          </mxGeometry>
        </mxCell>
        <mxCell id="3WGhXrrfseAbKHN0i4dS-81" value="" style="endArrow=blockThin;html=1;fontSize=8;align=left;entryX=0;entryY=0.25;entryDx=0;entryDy=0;endFill=1;" parent="1" target="3WGhXrrfseAbKHN0i4dS-17" edge="1">
          <mxGeometry width="50" height="50" relative="1" as="geometry">
            <mxPoint x="-220" y="536" as="sourcePoint" />
            <mxPoint x="-183.60199999999986" y="538.928" as="targetPoint" />
          </mxGeometry>
        </mxCell>
        <mxCell id="3WGhXrrfseAbKHN0i4dS-190" value="Rs2" style="edgeLabel;html=1;align=center;verticalAlign=middle;resizable=0;points=[];fontSize=6;fontColor=#000000;" parent="3WGhXrrfseAbKHN0i4dS-81" vertex="1" connectable="0">
          <mxGeometry x="-0.4118" y="-1" relative="1" as="geometry">
            <mxPoint as="offset" />
          </mxGeometry>
        </mxCell>
        <mxCell id="3WGhXrrfseAbKHN0i4dS-82" value="" style="endArrow=blockThin;html=1;fontSize=8;align=left;entryX=-0.002;entryY=0.438;entryDx=0;entryDy=0;entryPerimeter=0;endFill=1;" parent="1" target="3WGhXrrfseAbKHN0i4dS-68" edge="1">
          <mxGeometry width="50" height="50" relative="1" as="geometry">
            <mxPoint x="-220" y="330" as="sourcePoint" />
            <mxPoint x="-140" y="330" as="targetPoint" />
          </mxGeometry>
        </mxCell>
        <mxCell id="3WGhXrrfseAbKHN0i4dS-83" value="" style="endArrow=blockThin;html=1;fontSize=8;align=left;endFill=1;" parent="1" edge="1">
          <mxGeometry width="50" height="50" relative="1" as="geometry">
            <mxPoint x="-220" y="730" as="sourcePoint" />
            <mxPoint x="-11" y="731" as="targetPoint" />
          </mxGeometry>
        </mxCell>
        <mxCell id="3WGhXrrfseAbKHN0i4dS-84" value="" style="endArrow=blockThin;html=1;fontSize=8;align=left;entryX=0;entryY=0.5;entryDx=0;entryDy=0;endFill=1;" parent="1" target="3WGhXrrfseAbKHN0i4dS-22" edge="1">
          <mxGeometry width="50" height="50" relative="1" as="geometry">
            <mxPoint x="-220" y="650" as="sourcePoint" />
            <mxPoint x="-140" y="640" as="targetPoint" />
            <Array as="points">
              <mxPoint x="-160" y="650" />
            </Array>
          </mxGeometry>
        </mxCell>
        <mxCell id="3WGhXrrfseAbKHN0i4dS-85" value="" style="endArrow=blockThin;html=1;fontSize=8;align=left;exitX=1;exitY=0.5;exitDx=0;exitDy=0;entryX=-0.001;entryY=0.692;entryDx=0;entryDy=0;entryPerimeter=0;endFill=1;" parent="1" source="3WGhXrrfseAbKHN0i4dS-22" target="3WGhXrrfseAbKHN0i4dS-8" edge="1">
          <mxGeometry width="50" height="50" relative="1" as="geometry">
            <mxPoint x="-130" y="670" as="sourcePoint" />
            <mxPoint x="-14" y="650" as="targetPoint" />
            <Array as="points" />
          </mxGeometry>
        </mxCell>
        <mxCell id="3WGhXrrfseAbKHN0i4dS-193" value="ImmID" style="edgeLabel;html=1;align=center;verticalAlign=middle;resizable=0;points=[];fontSize=7;fontColor=#000000;" parent="3WGhXrrfseAbKHN0i4dS-85" vertex="1" connectable="0">
          <mxGeometry x="-0.1838" y="-2" relative="1" as="geometry">
            <mxPoint y="-2" as="offset" />
          </mxGeometry>
        </mxCell>
        <mxCell id="3WGhXrrfseAbKHN0i4dS-86" value="" style="endArrow=blockThin;html=1;fontSize=8;align=left;entryX=-0.036;entryY=0.144;entryDx=0;entryDy=0;entryPerimeter=0;endFill=1;" parent="1" target="3WGhXrrfseAbKHN0i4dS-16" edge="1">
          <mxGeometry width="50" height="50" relative="1" as="geometry">
            <mxPoint x="-288.65999999999997" y="416" as="sourcePoint" />
            <mxPoint x="-261.0000000000001" y="416.356" as="targetPoint" />
            <Array as="points">
              <mxPoint x="-280" y="416" />
              <mxPoint x="-280" y="440" />
            </Array>
          </mxGeometry>
        </mxCell>
        <mxCell id="3WGhXrrfseAbKHN0i4dS-87" value="" style="endArrow=blockThin;html=1;fontSize=8;align=left;endFill=1;" parent="1" edge="1">
          <mxGeometry width="50" height="50" relative="1" as="geometry">
            <mxPoint x="-241" y="441" as="sourcePoint" />
            <mxPoint x="-11" y="441" as="targetPoint" />
          </mxGeometry>
        </mxCell>
        <mxCell id="3WGhXrrfseAbKHN0i4dS-175" value="Pc4ID" style="edgeLabel;html=1;align=center;verticalAlign=middle;resizable=0;points=[];fontSize=7;fontColor=#000000;" parent="3WGhXrrfseAbKHN0i4dS-87" vertex="1" connectable="0">
          <mxGeometry x="-0.8919" relative="1" as="geometry">
            <mxPoint x="23" as="offset" />
          </mxGeometry>
        </mxCell>
        <mxCell id="3WGhXrrfseAbKHN0i4dS-88" value="" style="endArrow=blockThin;fontSize=8;align=left;entryX=0;entryY=0.358;entryDx=0;entryDy=0;entryPerimeter=0;endFill=1;exitX=0.998;exitY=0.067;exitDx=0;exitDy=0;exitPerimeter=0;" parent="1" target="3WGhXrrfseAbKHN0i4dS-8" edge="1" source="3WGhXrrfseAbKHN0i4dS-17">
          <mxGeometry width="50" height="50" relative="1" as="geometry">
            <mxPoint x="-97" y="520" as="sourcePoint" />
            <mxPoint x="-12" y="520" as="targetPoint" />
          </mxGeometry>
        </mxCell>
        <mxCell id="3WGhXrrfseAbKHN0i4dS-187" value="Re1ID" style="edgeLabel;html=1;align=center;verticalAlign=middle;resizable=0;points=[];fontSize=6;fontColor=#000000;" parent="3WGhXrrfseAbKHN0i4dS-88" vertex="1" connectable="0">
          <mxGeometry x="-0.5015" y="-1" relative="1" as="geometry">
            <mxPoint as="offset" />
          </mxGeometry>
        </mxCell>
        <mxCell id="3WGhXrrfseAbKHN0i4dS-89" value="" style="endArrow=blockThin;html=1;fontSize=8;align=left;entryX=0.002;entryY=0.411;entryDx=0;entryDy=0;entryPerimeter=0;endFill=1;exitX=0.999;exitY=0.302;exitDx=0;exitDy=0;exitPerimeter=0;" parent="1" target="3WGhXrrfseAbKHN0i4dS-8" edge="1" source="3WGhXrrfseAbKHN0i4dS-17">
          <mxGeometry width="50" height="50" relative="1" as="geometry">
            <mxPoint x="-97" y="540" as="sourcePoint" />
            <mxPoint x="-13" y="539" as="targetPoint" />
          </mxGeometry>
        </mxCell>
        <mxCell id="3WGhXrrfseAbKHN0i4dS-188" value="Re2ID" style="edgeLabel;html=1;align=center;verticalAlign=middle;resizable=0;points=[];fontSize=6;fontColor=#000000;" parent="3WGhXrrfseAbKHN0i4dS-89" vertex="1" connectable="0">
          <mxGeometry x="-0.4857" y="-1" relative="1" as="geometry">
            <mxPoint as="offset" />
          </mxGeometry>
        </mxCell>
        <mxCell id="3WGhXrrfseAbKHN0i4dS-90" value="&amp;nbsp;&amp;nbsp; Add" style="shape=step;perimeter=stepPerimeter;whiteSpace=wrap;html=1;fixedSize=1;align=left;size=10;" parent="1" vertex="1">
          <mxGeometry x="62.70999999999998" y="451.25" width="37.29" height="40" as="geometry" />
        </mxCell>
        <mxCell id="3WGhXrrfseAbKHN0i4dS-94" value="&lt;div&gt;imm&lt;/div&gt;&lt;div&gt;&amp;nbsp;*2&lt;/div&gt;" style="ellipse;whiteSpace=wrap;html=1;fontSize=8;align=left;" parent="1" vertex="1">
          <mxGeometry x="21.420000000000016" y="467" width="20" height="34.5" as="geometry" />
        </mxCell>
        <mxCell id="3WGhXrrfseAbKHN0i4dS-96" value="" style="endArrow=blockThin;html=1;fontSize=8;align=left;entryX=0.057;entryY=0.851;entryDx=0;entryDy=0;entryPerimeter=0;exitX=1.002;exitY=0.53;exitDx=0;exitDy=0;exitPerimeter=0;endFill=1;" parent="1" source="3WGhXrrfseAbKHN0i4dS-94" target="3WGhXrrfseAbKHN0i4dS-90" edge="1">
          <mxGeometry width="50" height="50" relative="1" as="geometry">
            <mxPoint x="70" y="485" as="sourcePoint" />
            <mxPoint x="62.420000000000016" y="456.85" as="targetPoint" />
          </mxGeometry>
        </mxCell>
        <mxCell id="3WGhXrrfseAbKHN0i4dS-97" value="" style="endArrow=none;html=1;fontSize=8;align=left;" parent="1" edge="1">
          <mxGeometry width="50" height="50" relative="1" as="geometry">
            <mxPoint x="10" y="650" as="sourcePoint" />
            <mxPoint x="30" y="650" as="targetPoint" />
          </mxGeometry>
        </mxCell>
        <mxCell id="3WGhXrrfseAbKHN0i4dS-98" value="" style="endArrow=none;html=1;fontSize=8;align=left;" parent="1" edge="1">
          <mxGeometry width="50" height="50" relative="1" as="geometry">
            <mxPoint x="30" y="690" as="sourcePoint" />
            <mxPoint x="30" y="510" as="targetPoint" />
          </mxGeometry>
        </mxCell>
        <mxCell id="3WGhXrrfseAbKHN0i4dS-99" value="" style="endArrow=blockThin;html=1;fontSize=8;align=left;entryX=0.435;entryY=1.014;entryDx=0;entryDy=0;entryPerimeter=0;endFill=1;" parent="1" target="3WGhXrrfseAbKHN0i4dS-94" edge="1">
          <mxGeometry width="50" height="50" relative="1" as="geometry">
            <mxPoint x="30" y="510" as="sourcePoint" />
            <mxPoint x="48.42000000000007" y="484.2405" as="targetPoint" />
          </mxGeometry>
        </mxCell>
        <mxCell id="3WGhXrrfseAbKHN0i4dS-100" value="" style="endArrow=blockThin;html=1;fontSize=8;align=left;entryX=-0.006;entryY=0.795;entryDx=0;entryDy=0;entryPerimeter=0;endFill=1;" parent="1" target="3WGhXrrfseAbKHN0i4dS-12" edge="1">
          <mxGeometry width="50" height="50" relative="1" as="geometry">
            <mxPoint x="30" y="690" as="sourcePoint" />
            <mxPoint x="161.57999999999993" y="689.88" as="targetPoint" />
          </mxGeometry>
        </mxCell>
        <mxCell id="3WGhXrrfseAbKHN0i4dS-101" value="" style="endArrow=blockThin;html=1;fontSize=8;align=left;entryX=0.033;entryY=0.899;entryDx=0;entryDy=0;entryPerimeter=0;endFill=1;" parent="1" target="3WGhXrrfseAbKHN0i4dS-12" edge="1">
          <mxGeometry width="50" height="50" relative="1" as="geometry">
            <mxPoint x="10" y="730" as="sourcePoint" />
            <mxPoint x="156" y="730" as="targetPoint" />
          </mxGeometry>
        </mxCell>
        <mxCell id="3WGhXrrfseAbKHN0i4dS-216" value="RdEX" style="edgeLabel;html=1;align=center;verticalAlign=middle;resizable=0;points=[];fontSize=7;fontColor=#000000;" parent="3WGhXrrfseAbKHN0i4dS-101" vertex="1" connectable="0">
          <mxGeometry x="-0.7964" y="-2" relative="1" as="geometry">
            <mxPoint as="offset" />
          </mxGeometry>
        </mxCell>
        <mxCell id="3WGhXrrfseAbKHN0i4dS-102" value="" style="endArrow=blockThin;html=1;fontSize=8;align=left;entryX=-0.012;entryY=0.234;entryDx=0;entryDy=0;entryPerimeter=0;exitX=1;exitY=0.5;exitDx=0;exitDy=0;endFill=1;" parent="1" source="3WGhXrrfseAbKHN0i4dS-90" target="3WGhXrrfseAbKHN0i4dS-12" edge="1">
          <mxGeometry width="50" height="50" relative="1" as="geometry">
            <mxPoint x="170" y="472.25" as="sourcePoint" />
            <mxPoint x="230.00000000000017" y="470.84000000000003" as="targetPoint" />
          </mxGeometry>
        </mxCell>
        <mxCell id="3WGhXrrfseAbKHN0i4dS-213" value="PcAddEX" style="edgeLabel;html=1;align=center;verticalAlign=middle;resizable=0;points=[];fontSize=6;fontColor=#000000;" parent="3WGhXrrfseAbKHN0i4dS-102" vertex="1" connectable="0">
          <mxGeometry x="0.3777" relative="1" as="geometry">
            <mxPoint x="-7" as="offset" />
          </mxGeometry>
        </mxCell>
        <mxCell id="3WGhXrrfseAbKHN0i4dS-103" value="" style="endArrow=blockThin;html=1;fontSize=8;align=left;endFill=1;" parent="1" edge="1">
          <mxGeometry width="50" height="50" relative="1" as="geometry">
            <mxPoint x="-379.5" y="467.5" as="sourcePoint" />
            <mxPoint x="-260.5" y="467" as="targetPoint" />
          </mxGeometry>
        </mxCell>
        <mxCell id="3WGhXrrfseAbKHN0i4dS-104" value="" style="endArrow=blockThin;html=1;fontSize=8;align=left;exitX=0.957;exitY=0.299;exitDx=0;exitDy=0;exitPerimeter=0;endFill=1;" parent="1" edge="1">
          <mxGeometry width="50" height="50" relative="1" as="geometry">
            <mxPoint x="-240.9999999999999" y="467.074" as="sourcePoint" />
            <mxPoint x="-10" y="467" as="targetPoint" />
          </mxGeometry>
        </mxCell>
        <mxCell id="3WGhXrrfseAbKHN0i4dS-225" value="PcID" style="edgeLabel;html=1;align=center;verticalAlign=middle;resizable=0;points=[];fontSize=7;fontColor=#000000;" parent="3WGhXrrfseAbKHN0i4dS-104" vertex="1" connectable="0">
          <mxGeometry x="-0.8701" relative="1" as="geometry">
            <mxPoint x="19" as="offset" />
          </mxGeometry>
        </mxCell>
        <mxCell id="3WGhXrrfseAbKHN0i4dS-105" value="" style="endArrow=blockThin;html=1;fontSize=6;align=left;entryX=0;entryY=0.25;entryDx=0;entryDy=0;endFill=1;" parent="1" target="3WGhXrrfseAbKHN0i4dS-90" edge="1">
          <mxGeometry width="50" height="50" relative="1" as="geometry">
            <mxPoint x="10" y="464" as="sourcePoint" />
            <mxPoint x="80" y="464" as="targetPoint" />
          </mxGeometry>
        </mxCell>
        <mxCell id="3WGhXrrfseAbKHN0i4dS-227" value="PcEX" style="edgeLabel;html=1;align=center;verticalAlign=middle;resizable=0;points=[];fontSize=6;fontColor=#000000;" parent="3WGhXrrfseAbKHN0i4dS-105" vertex="1" connectable="0">
          <mxGeometry x="-0.5839" y="1" relative="1" as="geometry">
            <mxPoint y="-1" as="offset" />
          </mxGeometry>
        </mxCell>
        <mxCell id="3WGhXrrfseAbKHN0i4dS-106" value="&lt;font style=&quot;font-size: 13px&quot;&gt;&amp;nbsp;&amp;nbsp;&amp;nbsp;&amp;nbsp; ALU&lt;/font&gt;" style="shape=step;perimeter=stepPerimeter;whiteSpace=wrap;html=1;fixedSize=1;fontSize=8;align=left;size=10.5799999999997;" parent="1" vertex="1">
          <mxGeometry x="150" y="512" width="60" height="66" as="geometry" />
        </mxCell>
        <mxCell id="3WGhXrrfseAbKHN0i4dS-107" value="" style="endArrow=blockThin;html=1;fontSize=8;align=left;endFill=1;entryX=0.11;entryY=0.89;entryDx=0;entryDy=0;entryPerimeter=0;" parent="1" target="gq7fBsmWnAXoDukaiIT1-26" edge="1">
          <mxGeometry width="50" height="50" relative="1" as="geometry">
            <mxPoint x="10" y="520" as="sourcePoint" />
            <mxPoint x="110" y="520" as="targetPoint" />
            <Array as="points">
              <mxPoint x="50" y="520" />
              <mxPoint x="50" y="498" />
            </Array>
          </mxGeometry>
        </mxCell>
        <mxCell id="3WGhXrrfseAbKHN0i4dS-197" value="Re1EX" style="edgeLabel;html=1;align=center;verticalAlign=middle;resizable=0;points=[];fontSize=5;fontColor=#000000;" parent="3WGhXrrfseAbKHN0i4dS-107" vertex="1" connectable="0">
          <mxGeometry x="-0.7674" y="-1" relative="1" as="geometry">
            <mxPoint x="63" y="-19" as="offset" />
          </mxGeometry>
        </mxCell>
        <mxCell id="3WGhXrrfseAbKHN0i4dS-109" value="MUX" style="strokeWidth=2;html=1;shape=mxgraph.flowchart.terminator;whiteSpace=wrap;rotation=90;" parent="1" vertex="1">
          <mxGeometry x="29.999999999999943" y="547" width="50" height="20" as="geometry" />
        </mxCell>
        <mxCell id="3WGhXrrfseAbKHN0i4dS-110" value="" style="endArrow=blockThin;html=1;fontSize=8;align=left;entryX=0.783;entryY=0.945;entryDx=0;entryDy=0;entryPerimeter=0;endFill=1;" parent="1" target="3WGhXrrfseAbKHN0i4dS-109" edge="1">
          <mxGeometry width="50" height="50" relative="1" as="geometry">
            <mxPoint x="30" y="571" as="sourcePoint" />
            <mxPoint y="560" as="targetPoint" />
          </mxGeometry>
        </mxCell>
        <mxCell id="3WGhXrrfseAbKHN0i4dS-111" value="" style="endArrow=blockThin;html=1;fontSize=8;align=left;exitX=0.993;exitY=0.414;exitDx=0;exitDy=0;exitPerimeter=0;entryX=0.203;entryY=0.98;entryDx=0;entryDy=0;entryPerimeter=0;endFill=1;" parent="1" edge="1">
          <mxGeometry width="50" height="50" relative="1" as="geometry">
            <mxPoint x="9.860000000000127" y="540.46" as="sourcePoint" />
            <mxPoint x="45.399999999999864" y="541.1500000000001" as="targetPoint" />
          </mxGeometry>
        </mxCell>
        <mxCell id="3WGhXrrfseAbKHN0i4dS-196" value="Re2EX" style="edgeLabel;html=1;align=center;verticalAlign=middle;resizable=0;points=[];fontSize=5;fontColor=#000000;" parent="3WGhXrrfseAbKHN0i4dS-111" vertex="1" connectable="0">
          <mxGeometry x="-0.515" relative="1" as="geometry">
            <mxPoint x="1" y="-5" as="offset" />
          </mxGeometry>
        </mxCell>
        <mxCell id="3WGhXrrfseAbKHN0i4dS-112" value="" style="endArrow=blockThin;html=1;fontSize=8;align=left;entryX=0.11;entryY=0.89;entryDx=0;entryDy=0;endFill=1;exitX=0.5;exitY=0;exitDx=0;exitDy=0;exitPerimeter=0;entryPerimeter=0;" parent="1" source="3WGhXrrfseAbKHN0i4dS-109" target="gq7fBsmWnAXoDukaiIT1-23" edge="1">
          <mxGeometry width="50" height="50" relative="1" as="geometry">
            <mxPoint x="70" y="558" as="sourcePoint" />
            <mxPoint x="106.42000000000002" y="511" as="targetPoint" />
          </mxGeometry>
        </mxCell>
        <mxCell id="3WGhXrrfseAbKHN0i4dS-114" value="" style="endArrow=blockThin;html=1;fontSize=8;align=left;exitX=1;exitY=0.5;exitDx=0;exitDy=0;entryX=0.002;entryY=0.421;entryDx=0;entryDy=0;entryPerimeter=0;endFill=1;" parent="1" source="3WGhXrrfseAbKHN0i4dS-106" target="3WGhXrrfseAbKHN0i4dS-12" edge="1">
          <mxGeometry width="50" height="50" relative="1" as="geometry">
            <mxPoint x="210" y="547.5" as="sourcePoint" />
            <mxPoint x="230" y="547" as="targetPoint" />
          </mxGeometry>
        </mxCell>
        <mxCell id="3WGhXrrfseAbKHN0i4dS-115" value="" style="endArrow=blockThin;html=1;fontSize=8;align=left;exitX=1.018;exitY=0.154;exitDx=0;exitDy=0;exitPerimeter=0;entryX=-0.035;entryY=0.154;entryDx=0;entryDy=0;entryPerimeter=0;endFill=1;" parent="1" source="3WGhXrrfseAbKHN0i4dS-8" target="3WGhXrrfseAbKHN0i4dS-12" edge="1">
          <mxGeometry width="50" height="50" relative="1" as="geometry">
            <mxPoint x="-230" y="560" as="sourcePoint" />
            <mxPoint x="162" y="440" as="targetPoint" />
          </mxGeometry>
        </mxCell>
        <mxCell id="3WGhXrrfseAbKHN0i4dS-206" value="Pc4EX" style="edgeLabel;html=1;align=center;verticalAlign=middle;resizable=0;points=[];fontSize=7;fontColor=#000000;" parent="3WGhXrrfseAbKHN0i4dS-115" vertex="1" connectable="0">
          <mxGeometry x="-0.8996" y="3" relative="1" as="geometry">
            <mxPoint x="12" y="2" as="offset" />
          </mxGeometry>
        </mxCell>
        <mxCell id="3WGhXrrfseAbKHN0i4dS-116" value="" style="endArrow=none;html=1;fontSize=8;align=left;startArrow=none;" parent="1" source="3WGhXrrfseAbKHN0i4dS-231" edge="1">
          <mxGeometry width="50" height="50" relative="1" as="geometry">
            <mxPoint x="20" y="610" as="sourcePoint" />
            <mxPoint x="20" y="540" as="targetPoint" />
          </mxGeometry>
        </mxCell>
        <mxCell id="3WGhXrrfseAbKHN0i4dS-118" value="" style="endArrow=blockThin;html=1;fontSize=8;align=left;entryX=0.043;entryY=0.587;entryDx=0;entryDy=0;entryPerimeter=0;endFill=1;" parent="1" edge="1" target="3WGhXrrfseAbKHN0i4dS-12">
          <mxGeometry width="50" height="50" relative="1" as="geometry">
            <mxPoint x="20" y="610" as="sourcePoint" />
            <mxPoint x="159.96000000000004" y="609.5999999999999" as="targetPoint" />
          </mxGeometry>
        </mxCell>
        <mxCell id="3WGhXrrfseAbKHN0i4dS-119" value="" style="endArrow=blockThin;html=1;fontSize=8;align=left;exitX=1.058;exitY=0.081;exitDx=0;exitDy=0;exitPerimeter=0;entryX=0.648;entryY=-0.002;entryDx=0;entryDy=0;entryPerimeter=0;fontColor=#33FFFF;fillColor=#dae8fc;strokeColor=#6c8ebf;endFill=1;" parent="1" source="3WGhXrrfseAbKHN0i4dS-8" target="3WGhXrrfseAbKHN0i4dS-106" edge="1">
          <mxGeometry width="50" height="50" relative="1" as="geometry">
            <mxPoint x="50" y="580" as="sourcePoint" />
            <mxPoint x="119" y="508" as="targetPoint" />
            <Array as="points">
              <mxPoint x="189" y="412" />
            </Array>
          </mxGeometry>
        </mxCell>
        <mxCell id="3WGhXrrfseAbKHN0i4dS-220" value="AluOp" style="edgeLabel;html=1;align=center;verticalAlign=middle;resizable=0;points=[];fontSize=7;fontColor=#000000;" parent="3WGhXrrfseAbKHN0i4dS-119" vertex="1" connectable="0">
          <mxGeometry x="-0.8735" y="1" relative="1" as="geometry">
            <mxPoint x="5" as="offset" />
          </mxGeometry>
        </mxCell>
        <mxCell id="3WGhXrrfseAbKHN0i4dS-120" value="" style="endArrow=blockThin;html=1;fontSize=8;fontColor=#33FFFF;align=left;entryX=0;entryY=0.5;entryDx=0;entryDy=0;entryPerimeter=0;fillColor=#dae8fc;strokeColor=#6c8ebf;endFill=1;" parent="1" target="3WGhXrrfseAbKHN0i4dS-109" edge="1">
          <mxGeometry width="50" height="50" relative="1" as="geometry">
            <mxPoint x="10" y="370" as="sourcePoint" />
            <mxPoint x="50" y="530" as="targetPoint" />
            <Array as="points">
              <mxPoint x="55" y="370" />
            </Array>
          </mxGeometry>
        </mxCell>
        <mxCell id="3WGhXrrfseAbKHN0i4dS-221" value="AluSrc" style="edgeLabel;html=1;align=center;verticalAlign=middle;resizable=0;points=[];fontSize=7;fontColor=#000000;" parent="3WGhXrrfseAbKHN0i4dS-120" vertex="1" connectable="0">
          <mxGeometry x="-0.9047" y="1" relative="1" as="geometry">
            <mxPoint x="9" y="1" as="offset" />
          </mxGeometry>
        </mxCell>
        <mxCell id="3WGhXrrfseAbKHN0i4dS-121" value="" style="endArrow=blockThin;html=1;fontSize=8;fontColor=#33FFFF;align=left;exitX=1;exitY=0.5;exitDx=0;exitDy=0;entryX=0;entryY=0.25;entryDx=0;entryDy=0;endFill=1;" parent="1" source="3WGhXrrfseAbKHN0i4dS-5" target="3WGhXrrfseAbKHN0i4dS-11" edge="1">
          <mxGeometry width="50" height="50" relative="1" as="geometry">
            <mxPoint x="11.70999999999998" y="340" as="sourcePoint" />
            <mxPoint x="61.70999999999998" y="290" as="targetPoint" />
            <Array as="points">
              <mxPoint x="90" y="335" />
              <mxPoint x="90" y="358" />
            </Array>
          </mxGeometry>
        </mxCell>
        <mxCell id="3WGhXrrfseAbKHN0i4dS-229" value="SigMEX" style="edgeLabel;html=1;align=center;verticalAlign=middle;resizable=0;points=[];fontSize=6;fontColor=#000000;" parent="3WGhXrrfseAbKHN0i4dS-121" vertex="1" connectable="0">
          <mxGeometry x="-0.7965" y="1" relative="1" as="geometry">
            <mxPoint as="offset" />
          </mxGeometry>
        </mxCell>
        <mxCell id="3WGhXrrfseAbKHN0i4dS-122" value="" style="endArrow=blockThin;html=1;fontSize=8;fontColor=#33FFFF;align=left;exitX=1;exitY=0.5;exitDx=0;exitDy=0;entryX=0;entryY=0.25;entryDx=0;entryDy=0;endFill=1;" parent="1" source="3WGhXrrfseAbKHN0i4dS-6" target="3WGhXrrfseAbKHN0i4dS-10" edge="1">
          <mxGeometry width="50" height="50" relative="1" as="geometry">
            <mxPoint x="70" y="390" as="sourcePoint" />
            <mxPoint x="120" y="340" as="targetPoint" />
            <Array as="points">
              <mxPoint x="90" y="305" />
              <mxPoint x="90" y="328" />
            </Array>
          </mxGeometry>
        </mxCell>
        <mxCell id="3WGhXrrfseAbKHN0i4dS-228" value="SigWBEX" style="edgeLabel;html=1;align=center;verticalAlign=middle;resizable=0;points=[];fontSize=6;fontColor=#000000;" parent="3WGhXrrfseAbKHN0i4dS-122" vertex="1" connectable="0">
          <mxGeometry x="-0.8382" relative="1" as="geometry">
            <mxPoint x="5" as="offset" />
          </mxGeometry>
        </mxCell>
        <mxCell id="3WGhXrrfseAbKHN0i4dS-123" value="" style="verticalLabelPosition=bottom;shadow=0;dashed=0;align=center;html=1;verticalAlign=top;shape=mxgraph.electrical.logic_gates.logic_gate;operation=xor;negating=1;negSize=0.15;fontSize=8;fontColor=#33FFFF;" parent="1" vertex="1">
          <mxGeometry x="270" y="392" width="50" height="26" as="geometry" />
        </mxCell>
        <mxCell id="3WGhXrrfseAbKHN0i4dS-125" value="Branch" style="endArrow=none;html=1;fontSize=8;align=left;entryX=0;entryY=0.25;entryDx=0;entryDy=0;entryPerimeter=0;exitX=1;exitY=0.75;exitDx=0;exitDy=0;verticalAlign=top;" parent="1" source="3WGhXrrfseAbKHN0i4dS-11" target="3WGhXrrfseAbKHN0i4dS-123" edge="1">
          <mxGeometry width="50" height="50" relative="1" as="geometry">
            <mxPoint x="250" y="361" as="sourcePoint" />
            <mxPoint x="300" y="311" as="targetPoint" />
            <Array as="points">
              <mxPoint x="270" y="374" />
            </Array>
          </mxGeometry>
        </mxCell>
        <mxCell id="3WGhXrrfseAbKHN0i4dS-126" value="" style="endArrow=none;html=1;fontSize=8;fontColor=#33FFFF;align=left;entryX=0;entryY=0.75;entryDx=0;entryDy=0;entryPerimeter=0;exitX=1.043;exitY=0.382;exitDx=0;exitDy=0;exitPerimeter=0;" parent="1" source="3WGhXrrfseAbKHN0i4dS-12" target="3WGhXrrfseAbKHN0i4dS-123" edge="1">
          <mxGeometry width="50" height="50" relative="1" as="geometry">
            <mxPoint x="250" y="548" as="sourcePoint" />
            <mxPoint x="300" y="498" as="targetPoint" />
            <Array as="points">
              <mxPoint x="270" y="530" />
            </Array>
          </mxGeometry>
        </mxCell>
        <mxCell id="3WGhXrrfseAbKHN0i4dS-182" value="ZeroMEM" style="edgeLabel;html=1;align=center;verticalAlign=middle;resizable=0;points=[];fontSize=6;fontColor=#000000;" parent="3WGhXrrfseAbKHN0i4dS-126" vertex="1" connectable="0">
          <mxGeometry x="0.3945" relative="1" as="geometry">
            <mxPoint y="32" as="offset" />
          </mxGeometry>
        </mxCell>
        <mxCell id="3WGhXrrfseAbKHN0i4dS-127" value="" style="endArrow=block;html=1;fontSize=8;fontColor=#33FFFF;align=left;entryX=0;entryY=0.5;entryDx=0;entryDy=0;entryPerimeter=0;fillColor=#dae8fc;strokeWidth=1;startArrow=none;startFill=0;strokeColor=#6c8ebf;endFill=1;exitX=0.953;exitY=0.5;exitDx=0;exitDy=0;exitPerimeter=0;" parent="1" source="3WGhXrrfseAbKHN0i4dS-123" target="3WGhXrrfseAbKHN0i4dS-35" edge="1">
          <mxGeometry width="50" height="50" relative="1" as="geometry">
            <mxPoint x="320" y="404" as="sourcePoint" />
            <mxPoint x="-130" y="230" as="targetPoint" />
            <Array as="points">
              <mxPoint x="340" y="404" />
              <mxPoint x="340" y="230" />
              <mxPoint x="-319" y="230" />
            </Array>
          </mxGeometry>
        </mxCell>
        <mxCell id="3WGhXrrfseAbKHN0i4dS-172" value="BranchSig" style="edgeLabel;html=1;align=center;verticalAlign=middle;resizable=0;points=[];fontSize=8;fontColor=#000000;" parent="3WGhXrrfseAbKHN0i4dS-127" vertex="1" connectable="0">
          <mxGeometry x="0.9092" y="-1" relative="1" as="geometry">
            <mxPoint as="offset" />
          </mxGeometry>
        </mxCell>
        <mxCell id="3WGhXrrfseAbKHN0i4dS-222" value="BranchSig" style="edgeLabel;html=1;align=center;verticalAlign=middle;resizable=0;points=[];fontSize=7;fontColor=#000000;" parent="3WGhXrrfseAbKHN0i4dS-127" vertex="1" connectable="0">
          <mxGeometry x="-0.9814" y="-1" relative="1" as="geometry">
            <mxPoint x="23" y="-166" as="offset" />
          </mxGeometry>
        </mxCell>
        <mxCell id="3WGhXrrfseAbKHN0i4dS-128" value="&lt;font style=&quot;font-size: 18px&quot; face=&quot;Comic Sans MS&quot;&gt;&amp;nbsp;&amp;nbsp;&amp;nbsp;&amp;nbsp;&amp;nbsp;&amp;nbsp; RAM&lt;/font&gt;" style="whiteSpace=wrap;html=1;aspect=fixed;fontSize=8;align=left;" parent="1" vertex="1">
          <mxGeometry x="410" y="514" width="109" height="109" as="geometry" />
        </mxCell>
        <mxCell id="3WGhXrrfseAbKHN0i4dS-129" value="" style="endArrow=blockThin;html=1;fontSize=8;fontColor=#33FFFF;strokeColor=#6c8ebf;strokeWidth=1;align=left;exitX=1;exitY=0.5;exitDx=0;exitDy=0;entryX=0.5;entryY=0;entryDx=0;entryDy=0;fillColor=#dae8fc;endFill=1;rounded=0;" parent="1" source="3WGhXrrfseAbKHN0i4dS-11" target="3WGhXrrfseAbKHN0i4dS-128" edge="1">
          <mxGeometry width="50" height="50" relative="1" as="geometry">
            <mxPoint x="220" y="471" as="sourcePoint" />
            <mxPoint x="270" y="421" as="targetPoint" />
            <Array as="points">
              <mxPoint x="465" y="366" />
            </Array>
          </mxGeometry>
        </mxCell>
        <mxCell id="3WGhXrrfseAbKHN0i4dS-130" value="" style="endArrow=blockThin;html=1;fontSize=8;fontColor=#33FFFF;strokeColor=#000000;strokeWidth=1;align=left;exitX=1;exitY=0.25;exitDx=0;exitDy=0;entryX=-0.026;entryY=0.384;entryDx=0;entryDy=0;entryPerimeter=0;endFill=1;" parent="1" source="3WGhXrrfseAbKHN0i4dS-106" target="3WGhXrrfseAbKHN0i4dS-12" edge="1">
          <mxGeometry width="50" height="50" relative="1" as="geometry">
            <mxPoint x="200" y="531" as="sourcePoint" />
            <mxPoint x="250" y="481" as="targetPoint" />
          </mxGeometry>
        </mxCell>
        <mxCell id="3WGhXrrfseAbKHN0i4dS-131" value="" style="endArrow=blockThin;html=1;fontSize=8;fontColor=#33FFFF;strokeColor=#000000;strokeWidth=1;align=left;exitX=1.026;exitY=0.424;exitDx=0;exitDy=0;exitPerimeter=0;entryX=-0.006;entryY=0.308;entryDx=0;entryDy=0;entryPerimeter=0;endFill=1;" parent="1" edge="1" target="3WGhXrrfseAbKHN0i4dS-128">
          <mxGeometry width="50" height="50" relative="1" as="geometry">
            <mxPoint x="250.5200000000002" y="547.36" as="sourcePoint" />
            <mxPoint x="299.5640000000001" y="547.283" as="targetPoint" />
          </mxGeometry>
        </mxCell>
        <mxCell id="3WGhXrrfseAbKHN0i4dS-201" value="AluOutMEM" style="edgeLabel;html=1;align=center;verticalAlign=middle;resizable=0;points=[];fontSize=5;fontColor=#000000;" parent="3WGhXrrfseAbKHN0i4dS-131" vertex="1" connectable="0">
          <mxGeometry x="-0.6338" y="1" relative="1" as="geometry">
            <mxPoint x="5" y="5" as="offset" />
          </mxGeometry>
        </mxCell>
        <mxCell id="3WGhXrrfseAbKHN0i4dS-132" value="" style="endArrow=blockThin;html=1;fontSize=8;fontColor=#33FFFF;strokeColor=#000000;strokeWidth=1;align=left;entryX=0.002;entryY=0.885;entryDx=0;entryDy=0;entryPerimeter=0;endFill=1;" parent="1" target="3WGhXrrfseAbKHN0i4dS-128" edge="1">
          <mxGeometry width="50" height="50" relative="1" as="geometry">
            <mxPoint x="250" y="611" as="sourcePoint" />
            <mxPoint x="299" y="610" as="targetPoint" />
          </mxGeometry>
        </mxCell>
        <mxCell id="3WGhXrrfseAbKHN0i4dS-200" value="ReMEM" style="edgeLabel;html=1;align=center;verticalAlign=middle;resizable=0;points=[];fontSize=6;fontColor=#000000;" parent="3WGhXrrfseAbKHN0i4dS-132" vertex="1" connectable="0">
          <mxGeometry x="-0.555" y="-1" relative="1" as="geometry">
            <mxPoint x="4" y="-1" as="offset" />
          </mxGeometry>
        </mxCell>
        <mxCell id="3WGhXrrfseAbKHN0i4dS-133" value="" style="endArrow=blockThin;html=1;fontSize=8;fontColor=#000000;strokeColor=#000000;strokeWidth=1;align=left;exitX=0.5;exitY=1;exitDx=0;exitDy=0;exitPerimeter=0;endFill=1;entryX=0;entryY=0.5;entryDx=0;entryDy=0;" parent="1" source="3WGhXrrfseAbKHN0i4dS-30" target="3WGhXrrfseAbKHN0i4dS-27" edge="1">
          <mxGeometry width="50" height="50" relative="1" as="geometry">
            <mxPoint x="-410" y="440" as="sourcePoint" />
            <mxPoint x="-410" y="530" as="targetPoint" />
            <Array as="points">
              <mxPoint x="-470" y="360" />
              <mxPoint x="-470" y="523" />
            </Array>
          </mxGeometry>
        </mxCell>
        <mxCell id="3WGhXrrfseAbKHN0i4dS-168" value="PcOut" style="edgeLabel;html=1;align=center;verticalAlign=middle;resizable=0;points=[];fontSize=8;fontColor=#000000;" parent="3WGhXrrfseAbKHN0i4dS-133" vertex="1" connectable="0">
          <mxGeometry x="-0.2957" y="3" relative="1" as="geometry">
            <mxPoint as="offset" />
          </mxGeometry>
        </mxCell>
        <mxCell id="3WGhXrrfseAbKHN0i4dS-134" value="" style="endArrow=blockThin;html=1;fontSize=8;fontColor=#000000;strokeColor=#000000;strokeWidth=1;align=left;exitX=1;exitY=0.5;exitDx=0;exitDy=0;endFill=1;entryX=0.529;entryY=-0.029;entryDx=0;entryDy=0;entryPerimeter=0;" parent="1" source="3WGhXrrfseAbKHN0i4dS-39" target="3WGhXrrfseAbKHN0i4dS-30" edge="1">
          <mxGeometry width="50" height="50" relative="1" as="geometry">
            <mxPoint x="-300" y="440" as="sourcePoint" />
            <mxPoint x="-290" y="340" as="targetPoint" />
            <Array as="points">
              <mxPoint x="-290" y="437" />
              <mxPoint x="-290" y="363" />
            </Array>
          </mxGeometry>
        </mxCell>
        <mxCell id="3WGhXrrfseAbKHN0i4dS-169" value="Pc4IF" style="edgeLabel;html=1;align=center;verticalAlign=middle;resizable=0;points=[];fontSize=8;fontColor=#000000;" parent="3WGhXrrfseAbKHN0i4dS-134" vertex="1" connectable="0">
          <mxGeometry x="-0.4084" y="-1" relative="1" as="geometry">
            <mxPoint as="offset" />
          </mxGeometry>
        </mxCell>
        <mxCell id="3WGhXrrfseAbKHN0i4dS-135" value="" style="endArrow=blockThin;html=1;fontSize=8;fontColor=#000000;strokeColor=#000000;strokeWidth=1;align=left;entryX=0.89;entryY=0.11;entryDx=0;entryDy=0;entryPerimeter=0;endFill=1;" parent="1" target="3WGhXrrfseAbKHN0i4dS-35" edge="1">
          <mxGeometry width="50" height="50" relative="1" as="geometry">
            <mxPoint x="-298.66" y="437" as="sourcePoint" />
            <mxPoint x="-290" y="380" as="targetPoint" />
            <Array as="points">
              <mxPoint x="-290" y="437" />
              <mxPoint x="-290" y="404" />
            </Array>
          </mxGeometry>
        </mxCell>
        <mxCell id="3WGhXrrfseAbKHN0i4dS-136" value="" style="endArrow=blockThin;html=1;fontSize=8;fontColor=#000000;strokeColor=#000000;strokeWidth=1;align=left;entryX=0.11;entryY=0.11;entryDx=0;entryDy=0;entryPerimeter=0;endFill=1;exitX=0.443;exitY=0.446;exitDx=0;exitDy=0;exitPerimeter=0;" parent="1" target="3WGhXrrfseAbKHN0i4dS-30" edge="1" source="3WGhXrrfseAbKHN0i4dS-147">
          <mxGeometry width="50" height="50" relative="1" as="geometry">
            <mxPoint x="210" y="560" as="sourcePoint" />
            <mxPoint x="-370" y="350" as="targetPoint" />
            <Array as="points">
              <mxPoint x="280" y="490" />
              <mxPoint x="310" y="490" />
              <mxPoint x="310" y="220" />
              <mxPoint x="-370" y="220" />
              <mxPoint x="-370" y="333" />
            </Array>
          </mxGeometry>
        </mxCell>
        <mxCell id="3WGhXrrfseAbKHN0i4dS-181" value="MemWrite" style="edgeLabel;html=1;align=center;verticalAlign=middle;resizable=0;points=[];fontSize=7;fontColor=#000000;" parent="3WGhXrrfseAbKHN0i4dS-136" vertex="1" connectable="0">
          <mxGeometry x="-0.7706" y="-6" relative="1" as="geometry">
            <mxPoint x="139" y="28" as="offset" />
          </mxGeometry>
        </mxCell>
        <mxCell id="3WGhXrrfseAbKHN0i4dS-137" value="" style="endArrow=blockThin;html=1;fontSize=8;fontColor=#000000;strokeColor=#000000;strokeWidth=1;align=left;exitX=1.023;exitY=0.233;exitDx=0;exitDy=0;exitPerimeter=0;entryX=0.11;entryY=0.11;entryDx=0;entryDy=0;entryPerimeter=0;endFill=1;" parent="1" source="3WGhXrrfseAbKHN0i4dS-12" target="3WGhXrrfseAbKHN0i4dS-35" edge="1">
          <mxGeometry width="50" height="50" relative="1" as="geometry">
            <mxPoint x="230" y="540" as="sourcePoint" />
            <mxPoint x="-40" y="240" as="targetPoint" />
            <Array as="points">
              <mxPoint x="330" y="471" />
              <mxPoint x="330" y="240" />
              <mxPoint x="-270" y="240" />
              <mxPoint x="-270" y="379" />
            </Array>
          </mxGeometry>
        </mxCell>
        <mxCell id="3WGhXrrfseAbKHN0i4dS-214" value="Text" style="edgeLabel;html=1;align=center;verticalAlign=middle;resizable=0;points=[];fontSize=7;fontColor=#000000;" parent="3WGhXrrfseAbKHN0i4dS-137" vertex="1" connectable="0">
          <mxGeometry x="-0.9456" y="1" relative="1" as="geometry">
            <mxPoint as="offset" />
          </mxGeometry>
        </mxCell>
        <mxCell id="3WGhXrrfseAbKHN0i4dS-215" value="PcAddMEM" style="edgeLabel;html=1;align=center;verticalAlign=middle;resizable=0;points=[];fontSize=6;fontColor=#000000;" parent="3WGhXrrfseAbKHN0i4dS-137" vertex="1" connectable="0">
          <mxGeometry x="-0.9471" relative="1" as="geometry">
            <mxPoint x="9" as="offset" />
          </mxGeometry>
        </mxCell>
        <mxCell id="3WGhXrrfseAbKHN0i4dS-138" value="" style="endArrow=blockThin;html=1;fontSize=8;fontColor=#000000;strokeColor=#000000;strokeWidth=1;align=left;entryX=0.344;entryY=-0.029;entryDx=0;entryDy=0;entryPerimeter=0;endFill=1;" parent="1" target="3WGhXrrfseAbKHN0i4dS-30" edge="1">
          <mxGeometry width="50" height="50" relative="1" as="geometry">
            <mxPoint x="-270" y="350" as="sourcePoint" />
            <mxPoint x="-190" y="400" as="targetPoint" />
          </mxGeometry>
        </mxCell>
        <mxCell id="3WGhXrrfseAbKHN0i4dS-139" value="" style="endArrow=blockThin;html=1;fontSize=8;fontColor=#000000;strokeColor=#6c8ebf;strokeWidth=1;align=left;entryX=0;entryY=0.5;entryDx=0;entryDy=0;entryPerimeter=0;fillColor=#dae8fc;endFill=1;" parent="1" target="3WGhXrrfseAbKHN0i4dS-30" edge="1">
          <mxGeometry width="50" height="50" relative="1" as="geometry">
            <mxPoint x="250" y="360" as="sourcePoint" />
            <mxPoint x="-330" y="250" as="targetPoint" />
            <Array as="points">
              <mxPoint x="270" y="360" />
              <mxPoint x="270" y="250" />
              <mxPoint x="200" y="250" />
              <mxPoint x="-400" y="250" />
            </Array>
          </mxGeometry>
        </mxCell>
        <mxCell id="3WGhXrrfseAbKHN0i4dS-171" value="PcSrc" style="edgeLabel;html=1;align=center;verticalAlign=middle;resizable=0;points=[];fontSize=8;fontColor=#000000;" parent="3WGhXrrfseAbKHN0i4dS-139" vertex="1" connectable="0">
          <mxGeometry x="0.9378" relative="1" as="geometry">
            <mxPoint as="offset" />
          </mxGeometry>
        </mxCell>
        <mxCell id="3WGhXrrfseAbKHN0i4dS-140" value="" style="endArrow=blockThin;html=1;fontSize=8;fontColor=#000000;strokeColor=#000000;strokeWidth=1;align=left;entryX=-0.035;entryY=0.666;entryDx=0;entryDy=0;entryPerimeter=0;endFill=1;" parent="1" target="3WGhXrrfseAbKHN0i4dS-15" edge="1">
          <mxGeometry width="50" height="50" relative="1" as="geometry">
            <mxPoint x="280" y="551" as="sourcePoint" />
            <mxPoint x="310" y="631" as="targetPoint" />
            <Array as="points">
              <mxPoint x="280" y="641" />
            </Array>
          </mxGeometry>
        </mxCell>
        <mxCell id="3WGhXrrfseAbKHN0i4dS-147" value="" style="shape=waypoint;sketch=0;size=6;pointerEvents=1;points=[];fillColor=none;resizable=0;rotatable=0;perimeter=centerPerimeter;snapToPoint=1;fontSize=8;fontColor=#000000;strokeColor=#000000;align=left;" parent="1" vertex="1">
          <mxGeometry x="260" y="527" width="40" height="40" as="geometry" />
        </mxCell>
        <mxCell id="3WGhXrrfseAbKHN0i4dS-148" value="" style="shape=waypoint;sketch=0;size=6;pointerEvents=1;points=[];fillColor=none;resizable=0;rotatable=0;perimeter=centerPerimeter;snapToPoint=1;fontSize=8;fontColor=#000000;strokeColor=#000000;align=left;" parent="1" vertex="1">
          <mxGeometry x="9.999999999999957" y="630" width="40" height="40" as="geometry" />
        </mxCell>
        <mxCell id="3WGhXrrfseAbKHN0i4dS-151" value="" style="endArrow=blockThin;html=1;fontSize=8;fontColor=#000000;strokeColor=#6c8ebf;strokeWidth=1;align=left;exitX=1;exitY=0.25;exitDx=0;exitDy=0;entryX=0.5;entryY=0;entryDx=0;entryDy=0;fillColor=#dae8fc;endFill=1;" parent="1" source="3WGhXrrfseAbKHN0i4dS-14" target="3WGhXrrfseAbKHN0i4dS-17" edge="1">
          <mxGeometry width="50" height="50" relative="1" as="geometry">
            <mxPoint x="90" y="480" as="sourcePoint" />
            <mxPoint x="-130" y="270" as="targetPoint" />
            <Array as="points">
              <mxPoint x="700" y="358" />
              <mxPoint x="700" y="270" />
              <mxPoint x="400" y="270" />
              <mxPoint x="-93" y="270" />
            </Array>
          </mxGeometry>
        </mxCell>
        <mxCell id="3WGhXrrfseAbKHN0i4dS-180" value="RegWrite" style="edgeLabel;html=1;align=center;verticalAlign=middle;resizable=0;points=[];fontSize=6;fontColor=#000000;" parent="3WGhXrrfseAbKHN0i4dS-151" vertex="1" connectable="0">
          <mxGeometry x="0.9356" y="-1" relative="1" as="geometry">
            <mxPoint as="offset" />
          </mxGeometry>
        </mxCell>
        <mxCell id="3WGhXrrfseAbKHN0i4dS-152" value="&lt;p style=&quot;line-height: 1&quot;&gt;&lt;font face=&quot;Comic Sans MS&quot;&gt;MUX&lt;/font&gt;&lt;/p&gt;" style="strokeWidth=2;html=1;shape=mxgraph.flowchart.terminator;whiteSpace=wrap;rotation=90;" parent="1" vertex="1">
          <mxGeometry x="614.52" y="570" width="50" height="20" as="geometry" />
        </mxCell>
        <mxCell id="3WGhXrrfseAbKHN0i4dS-153" value="" style="endArrow=blockThin;html=1;fontSize=8;fontColor=#000000;strokeColor=#000000;strokeWidth=1;align=left;exitX=0.941;exitY=0.152;exitDx=0;exitDy=0;exitPerimeter=0;entryX=-0.024;entryY=0.152;entryDx=0;entryDy=0;entryPerimeter=0;endFill=1;" parent="1" source="3WGhXrrfseAbKHN0i4dS-12" target="3WGhXrrfseAbKHN0i4dS-15" edge="1">
          <mxGeometry width="50" height="50" relative="1" as="geometry">
            <mxPoint x="220" y="491" as="sourcePoint" />
            <mxPoint x="270" y="441" as="targetPoint" />
          </mxGeometry>
        </mxCell>
        <mxCell id="3WGhXrrfseAbKHN0i4dS-208" value="Pc4MEM" style="edgeLabel;html=1;align=center;verticalAlign=middle;resizable=0;points=[];fontSize=7;fontColor=#000000;" parent="3WGhXrrfseAbKHN0i4dS-153" vertex="1" connectable="0">
          <mxGeometry x="-0.867" y="1" relative="1" as="geometry">
            <mxPoint x="25" as="offset" />
          </mxGeometry>
        </mxCell>
        <mxCell id="3WGhXrrfseAbKHN0i4dS-154" value="" style="endArrow=blockThin;html=1;fontSize=8;fontColor=#000000;strokeColor=#000000;strokeWidth=1;align=left;entryX=0.11;entryY=0.89;entryDx=0;entryDy=0;entryPerimeter=0;endFill=1;" parent="1" target="3WGhXrrfseAbKHN0i4dS-152" edge="1">
          <mxGeometry width="50" height="50" relative="1" as="geometry">
            <mxPoint x="569.52" y="440" as="sourcePoint" />
            <mxPoint x="589.52" y="580" as="targetPoint" />
            <Array as="points">
              <mxPoint x="589.52" y="440" />
              <mxPoint x="590" y="560" />
            </Array>
          </mxGeometry>
        </mxCell>
        <mxCell id="3WGhXrrfseAbKHN0i4dS-212" value="Pc4WB" style="edgeLabel;html=1;align=center;verticalAlign=middle;resizable=0;points=[];fontSize=7;fontColor=#000000;" parent="3WGhXrrfseAbKHN0i4dS-154" vertex="1" connectable="0">
          <mxGeometry x="-0.0011" y="1" relative="1" as="geometry">
            <mxPoint as="offset" />
          </mxGeometry>
        </mxCell>
        <mxCell id="3WGhXrrfseAbKHN0i4dS-156" value="" style="endArrow=blockThin;html=1;fontSize=8;fontColor=#000000;strokeColor=#000000;strokeWidth=1;align=left;exitX=1;exitY=0.5;exitDx=0;exitDy=0;endFill=1;entryX=0.011;entryY=0.483;entryDx=0;entryDy=0;entryPerimeter=0;" parent="1" edge="1" target="3WGhXrrfseAbKHN0i4dS-15" source="3WGhXrrfseAbKHN0i4dS-128">
          <mxGeometry width="50" height="50" relative="1" as="geometry">
            <mxPoint x="409.0000000000002" y="569.5" as="sourcePoint" />
            <mxPoint x="550" y="570" as="targetPoint" />
          </mxGeometry>
        </mxCell>
        <mxCell id="3WGhXrrfseAbKHN0i4dS-203" value="DataOutMEM" style="edgeLabel;html=1;align=center;verticalAlign=middle;resizable=0;points=[];fontSize=6;fontColor=#000000;" parent="3WGhXrrfseAbKHN0i4dS-156" vertex="1" connectable="0">
          <mxGeometry x="-0.5183" y="-3" relative="1" as="geometry">
            <mxPoint x="4" y="-10" as="offset" />
          </mxGeometry>
        </mxCell>
        <mxCell id="3WGhXrrfseAbKHN0i4dS-157" value="" style="endArrow=blockThin;html=1;fontSize=8;fontColor=#000000;strokeColor=#000000;strokeWidth=1;align=left;exitX=0.974;exitY=0.492;exitDx=0;exitDy=0;exitPerimeter=0;entryX=0.356;entryY=1.006;entryDx=0;entryDy=0;entryPerimeter=0;endFill=1;" parent="1" source="3WGhXrrfseAbKHN0i4dS-15" target="3WGhXrrfseAbKHN0i4dS-152" edge="1">
          <mxGeometry width="50" height="50" relative="1" as="geometry">
            <mxPoint x="539.52" y="600" as="sourcePoint" />
            <mxPoint x="589.52" y="550" as="targetPoint" />
          </mxGeometry>
        </mxCell>
        <mxCell id="3WGhXrrfseAbKHN0i4dS-211" value="DataOurWB" style="edgeLabel;html=1;align=center;verticalAlign=middle;resizable=0;points=[];fontSize=7;fontColor=#000000;" parent="3WGhXrrfseAbKHN0i4dS-157" vertex="1" connectable="0">
          <mxGeometry x="-0.3982" y="-1" relative="1" as="geometry">
            <mxPoint x="8" y="-2" as="offset" />
          </mxGeometry>
        </mxCell>
        <mxCell id="3WGhXrrfseAbKHN0i4dS-158" value="" style="endArrow=blockThin;html=1;fontSize=8;fontColor=#000000;strokeColor=#000000;strokeWidth=1;align=left;exitX=0.989;exitY=0.666;exitDx=0;exitDy=0;exitPerimeter=0;entryX=0.553;entryY=0.992;entryDx=0;entryDy=0;entryPerimeter=0;endFill=1;" parent="1" source="3WGhXrrfseAbKHN0i4dS-15" target="3WGhXrrfseAbKHN0i4dS-152" edge="1">
          <mxGeometry width="50" height="50" relative="1" as="geometry">
            <mxPoint x="579.52" y="620" as="sourcePoint" />
            <mxPoint x="629.52" y="570" as="targetPoint" />
            <Array as="points">
              <mxPoint x="579.52" y="640" />
              <mxPoint x="580" y="583" />
            </Array>
          </mxGeometry>
        </mxCell>
        <mxCell id="3WGhXrrfseAbKHN0i4dS-210" value="AluOutWB" style="edgeLabel;html=1;align=center;verticalAlign=middle;resizable=0;points=[];fontSize=7;fontColor=#000000;" parent="3WGhXrrfseAbKHN0i4dS-158" vertex="1" connectable="0">
          <mxGeometry x="0.3914" y="-1" relative="1" as="geometry">
            <mxPoint as="offset" />
          </mxGeometry>
        </mxCell>
        <mxCell id="3WGhXrrfseAbKHN0i4dS-159" value="" style="endArrow=blockThin;html=1;fontSize=8;fontColor=#000000;strokeColor=#000000;strokeWidth=1;align=left;exitX=1.022;exitY=0.792;exitDx=0;exitDy=0;exitPerimeter=0;entryX=-0.006;entryY=0.793;entryDx=0;entryDy=0;entryPerimeter=0;endFill=1;" parent="1" source="3WGhXrrfseAbKHN0i4dS-12" target="3WGhXrrfseAbKHN0i4dS-15" edge="1">
          <mxGeometry width="50" height="50" relative="1" as="geometry">
            <mxPoint x="310" y="741" as="sourcePoint" />
            <mxPoint x="360" y="691" as="targetPoint" />
          </mxGeometry>
        </mxCell>
        <mxCell id="3WGhXrrfseAbKHN0i4dS-195" value="ImmMEM" style="edgeLabel;html=1;align=center;verticalAlign=middle;resizable=0;points=[];fontSize=7;fontColor=#000000;" parent="3WGhXrrfseAbKHN0i4dS-159" vertex="1" connectable="0">
          <mxGeometry x="-0.7143" y="-1" relative="1" as="geometry">
            <mxPoint x="-6" as="offset" />
          </mxGeometry>
        </mxCell>
        <mxCell id="3WGhXrrfseAbKHN0i4dS-160" value="" style="endArrow=blockThin;html=1;fontSize=8;fontColor=#000000;strokeColor=#000000;strokeWidth=1;align=left;exitX=1.064;exitY=0.793;exitDx=0;exitDy=0;exitPerimeter=0;entryX=0.89;entryY=0.89;entryDx=0;entryDy=0;entryPerimeter=0;endFill=1;" parent="1" source="3WGhXrrfseAbKHN0i4dS-15" target="3WGhXrrfseAbKHN0i4dS-152" edge="1">
          <mxGeometry width="50" height="50" relative="1" as="geometry">
            <mxPoint x="619.52" y="660" as="sourcePoint" />
            <mxPoint x="669.52" y="610" as="targetPoint" />
            <Array as="points">
              <mxPoint x="589.52" y="689" />
              <mxPoint x="590" y="599" />
            </Array>
          </mxGeometry>
        </mxCell>
        <mxCell id="3WGhXrrfseAbKHN0i4dS-209" value="ImmWB" style="edgeLabel;html=1;align=center;verticalAlign=middle;resizable=0;points=[];fontSize=7;fontColor=#000000;" parent="3WGhXrrfseAbKHN0i4dS-160" vertex="1" connectable="0">
          <mxGeometry x="-0.4906" y="1" relative="1" as="geometry">
            <mxPoint x="21" y="-71" as="offset" />
          </mxGeometry>
        </mxCell>
        <mxCell id="3WGhXrrfseAbKHN0i4dS-161" value="" style="endArrow=blockThin;html=1;fontSize=8;fontColor=#000000;strokeColor=#000000;strokeWidth=1;align=left;exitX=0.5;exitY=0;exitDx=0;exitDy=0;exitPerimeter=0;entryX=0;entryY=0.5;entryDx=0;entryDy=0;endFill=1;" parent="1" source="3WGhXrrfseAbKHN0i4dS-152" target="3WGhXrrfseAbKHN0i4dS-17" edge="1">
          <mxGeometry width="50" height="50" relative="1" as="geometry">
            <mxPoint x="310" y="600" as="sourcePoint" />
            <mxPoint x="-200" y="600" as="targetPoint" />
            <Array as="points">
              <mxPoint x="670" y="580" />
              <mxPoint x="670" y="810" />
              <mxPoint x="-210" y="810" />
              <mxPoint x="-210" y="557" />
            </Array>
          </mxGeometry>
        </mxCell>
        <mxCell id="3WGhXrrfseAbKHN0i4dS-219" value="WriteRegData" style="edgeLabel;html=1;align=center;verticalAlign=middle;resizable=0;points=[];fontSize=7;fontColor=#000000;" parent="3WGhXrrfseAbKHN0i4dS-161" vertex="1" connectable="0">
          <mxGeometry x="-0.7963" relative="1" as="geometry">
            <mxPoint x="-12" y="-1" as="offset" />
          </mxGeometry>
        </mxCell>
        <mxCell id="3WGhXrrfseAbKHN0i4dS-162" value="" style="endArrow=blockThin;html=1;fontSize=8;fontColor=#000000;strokeColor=#000000;strokeWidth=1;align=left;entryX=0;entryY=0.75;entryDx=0;entryDy=0;endFill=1;exitX=1;exitY=0.893;exitDx=0;exitDy=0;exitPerimeter=0;" parent="1" target="3WGhXrrfseAbKHN0i4dS-17" edge="1" source="3WGhXrrfseAbKHN0i4dS-15">
          <mxGeometry width="50" height="50" relative="1" as="geometry">
            <mxPoint x="410" y="728" as="sourcePoint" />
            <mxPoint x="-200" y="590" as="targetPoint" />
            <Array as="points">
              <mxPoint x="590" y="728" />
              <mxPoint x="590" y="790" />
              <mxPoint x="220" y="790" />
              <mxPoint x="-200" y="790" />
              <mxPoint x="-200" y="579" />
            </Array>
          </mxGeometry>
        </mxCell>
        <mxCell id="3WGhXrrfseAbKHN0i4dS-192" value="RdWB" style="edgeLabel;html=1;align=center;verticalAlign=middle;resizable=0;points=[];fontSize=6;fontColor=#000000;" parent="3WGhXrrfseAbKHN0i4dS-162" vertex="1" connectable="0">
          <mxGeometry x="0.8684" relative="1" as="geometry">
            <mxPoint x="3" as="offset" />
          </mxGeometry>
        </mxCell>
        <mxCell id="3WGhXrrfseAbKHN0i4dS-218" value="RdWB" style="edgeLabel;html=1;align=center;verticalAlign=middle;resizable=0;points=[];fontSize=7;fontColor=#000000;" parent="3WGhXrrfseAbKHN0i4dS-162" vertex="1" connectable="0">
          <mxGeometry x="-0.9003" y="-1" relative="1" as="geometry">
            <mxPoint x="-9" y="-8" as="offset" />
          </mxGeometry>
        </mxCell>
        <mxCell id="3WGhXrrfseAbKHN0i4dS-163" value="" style="endArrow=blockThin;html=1;fontSize=8;fontColor=#000000;strokeColor=#000000;strokeWidth=1;align=left;exitX=1.06;exitY=0.898;exitDx=0;exitDy=0;exitPerimeter=0;entryX=-0.04;entryY=0.898;entryDx=0;entryDy=0;entryPerimeter=0;endFill=1;" parent="1" source="3WGhXrrfseAbKHN0i4dS-12" target="3WGhXrrfseAbKHN0i4dS-15" edge="1">
          <mxGeometry width="50" height="50" relative="1" as="geometry">
            <mxPoint x="340" y="721" as="sourcePoint" />
            <mxPoint x="390" y="671" as="targetPoint" />
          </mxGeometry>
        </mxCell>
        <mxCell id="3WGhXrrfseAbKHN0i4dS-217" value="RdMEM" style="edgeLabel;html=1;align=center;verticalAlign=middle;resizable=0;points=[];fontSize=7;fontColor=#000000;" parent="3WGhXrrfseAbKHN0i4dS-163" vertex="1" connectable="0">
          <mxGeometry x="-0.8881" y="1" relative="1" as="geometry">
            <mxPoint x="10" as="offset" />
          </mxGeometry>
        </mxCell>
        <mxCell id="3WGhXrrfseAbKHN0i4dS-164" value="" style="endArrow=blockThin;html=1;fontSize=8;fontColor=#000000;strokeColor=#6c8ebf;strokeWidth=1;align=left;exitX=1;exitY=0.75;exitDx=0;exitDy=0;entryX=0;entryY=0.5;entryDx=0;entryDy=0;entryPerimeter=0;fillColor=#dae8fc;endFill=1;" parent="1" source="3WGhXrrfseAbKHN0i4dS-14" target="3WGhXrrfseAbKHN0i4dS-152" edge="1">
          <mxGeometry width="50" height="50" relative="1" as="geometry">
            <mxPoint x="539.52" y="490" as="sourcePoint" />
            <mxPoint x="589.52" y="440" as="targetPoint" />
            <Array as="points">
              <mxPoint x="640" y="373" />
            </Array>
          </mxGeometry>
        </mxCell>
        <mxCell id="3WGhXrrfseAbKHN0i4dS-205" value="&lt;font style=&quot;font-size: 7px&quot;&gt;MemToReg&lt;/font&gt;" style="edgeLabel;html=1;align=center;verticalAlign=middle;resizable=0;points=[];fontSize=6;fontColor=#000000;" parent="3WGhXrrfseAbKHN0i4dS-164" vertex="1" connectable="0">
          <mxGeometry x="0.702" y="-2" relative="1" as="geometry">
            <mxPoint x="-28" y="-148" as="offset" />
          </mxGeometry>
        </mxCell>
        <mxCell id="3WGhXrrfseAbKHN0i4dS-166" value="     &#xa;&#xa;&#xa;&#xa;   &#xa;" style="shape=waypoint;sketch=0;size=6;pointerEvents=1;points=[];fillColor=none;resizable=0;rotatable=0;perimeter=centerPerimeter;snapToPoint=1;fontSize=8;fontColor=#000000;strokeColor=#000000;align=left;verticalAlign=bottom;" parent="1" vertex="1">
          <mxGeometry x="-310.00000000000006" y="396" width="40" height="40" as="geometry" />
        </mxCell>
        <mxCell id="3WGhXrrfseAbKHN0i4dS-167" value="" style="shape=waypoint;sketch=0;size=6;pointerEvents=1;points=[];fillColor=none;resizable=0;rotatable=0;perimeter=centerPerimeter;snapToPoint=1;fontSize=8;fontColor=#000000;strokeColor=#000000;align=left;" parent="1" vertex="1">
          <mxGeometry x="-290.00000000000006" y="330" width="40" height="40" as="geometry" />
        </mxCell>
        <mxCell id="3WGhXrrfseAbKHN0i4dS-79" value="" style="endArrow=none;html=1;fontSize=8;align=left;" parent="1" edge="1">
          <mxGeometry width="50" height="50" relative="1" as="geometry">
            <mxPoint x="-241" y="555" as="sourcePoint" />
            <mxPoint x="-220" y="555" as="targetPoint" />
          </mxGeometry>
        </mxCell>
        <mxCell id="3WGhXrrfseAbKHN0i4dS-224" value="InstID" style="edgeLabel;html=1;align=center;verticalAlign=middle;resizable=0;points=[];fontSize=5;fontColor=#000000;" parent="3WGhXrrfseAbKHN0i4dS-79" vertex="1" connectable="0">
          <mxGeometry x="-0.1736" relative="1" as="geometry">
            <mxPoint x="1" as="offset" />
          </mxGeometry>
        </mxCell>
        <mxCell id="3WGhXrrfseAbKHN0i4dS-178" value="SigWBID" style="text;html=1;strokeColor=none;fillColor=none;align=center;verticalAlign=middle;whiteSpace=wrap;rounded=0;fontSize=6;fontColor=#000000;opacity=40;" parent="1" vertex="1">
          <mxGeometry x="-54" y="293" width="40" height="20" as="geometry" />
        </mxCell>
        <mxCell id="3WGhXrrfseAbKHN0i4dS-179" value="SigMID" style="text;html=1;strokeColor=none;fillColor=none;align=center;verticalAlign=middle;whiteSpace=wrap;rounded=0;fontSize=6;fontColor=#000000;opacity=40;" parent="1" vertex="1">
          <mxGeometry x="-56" y="321" width="40" height="20" as="geometry" />
        </mxCell>
        <mxCell id="3WGhXrrfseAbKHN0i4dS-185" value="ZeroEX" style="text;html=1;strokeColor=none;fillColor=none;align=center;verticalAlign=middle;whiteSpace=wrap;rounded=0;fontSize=6;fontColor=#000000;opacity=40;" parent="1" vertex="1">
          <mxGeometry x="196" y="516" width="40" height="20" as="geometry" />
        </mxCell>
        <mxCell id="3WGhXrrfseAbKHN0i4dS-194" value="ImmEX" style="text;html=1;strokeColor=none;fillColor=none;align=center;verticalAlign=middle;whiteSpace=wrap;rounded=0;fontSize=6;fontColor=#000000;opacity=40;" parent="1" vertex="1">
          <mxGeometry x="24" y="640" width="40" height="20" as="geometry" />
        </mxCell>
        <mxCell id="3WGhXrrfseAbKHN0i4dS-198" value="AluSrc2" style="text;html=1;strokeColor=none;fillColor=none;align=center;verticalAlign=middle;whiteSpace=wrap;rounded=0;fontSize=5;fontColor=#000000;opacity=40;" parent="1" vertex="1">
          <mxGeometry x="70" y="545" width="40" height="20" as="geometry" />
        </mxCell>
        <mxCell id="3WGhXrrfseAbKHN0i4dS-199" value="AluOutEX" style="text;html=1;strokeColor=none;fillColor=none;align=center;verticalAlign=middle;whiteSpace=wrap;rounded=0;fontSize=5;fontColor=#000000;opacity=40;" parent="1" vertex="1">
          <mxGeometry x="199" y="543" width="40" height="20" as="geometry" />
        </mxCell>
        <mxCell id="3WGhXrrfseAbKHN0i4dS-231" value="     &#xa;&#xa;&#xa;&#xa;   &#xa;" style="shape=waypoint;sketch=0;size=6;pointerEvents=1;points=[];fillColor=none;resizable=0;rotatable=0;perimeter=centerPerimeter;snapToPoint=1;fontSize=8;fontColor=#000000;strokeColor=#000000;align=left;verticalAlign=bottom;" parent="1" vertex="1">
          <mxGeometry x="-5.684341886080802e-14" y="522" width="40" height="40" as="geometry" />
        </mxCell>
        <mxCell id="3WGhXrrfseAbKHN0i4dS-232" value="" style="endArrow=none;html=1;fontSize=8;align=left;" parent="1" target="3WGhXrrfseAbKHN0i4dS-231" edge="1">
          <mxGeometry width="50" height="50" relative="1" as="geometry">
            <mxPoint x="20" y="610" as="sourcePoint" />
            <mxPoint x="20" y="540" as="targetPoint" />
          </mxGeometry>
        </mxCell>
        <mxCell id="3WGhXrrfseAbKHN0i4dS-237" value="" style="endArrow=blockThin;html=1;fontSize=6;fontColor=#000000;strokeColor=#000000;strokeWidth=1;align=left;exitX=1;exitY=0.5;exitDx=0;exitDy=0;entryX=0.008;entryY=0.436;entryDx=0;entryDy=0;entryPerimeter=0;endFill=1;" parent="1" source="3WGhXrrfseAbKHN0i4dS-24" target="3WGhXrrfseAbKHN0i4dS-16" edge="1">
          <mxGeometry width="50" height="50" relative="1" as="geometry">
            <mxPoint x="-270" y="570" as="sourcePoint" />
            <mxPoint x="-262" y="552" as="targetPoint" />
          </mxGeometry>
        </mxCell>
        <mxCell id="3WGhXrrfseAbKHN0i4dS-238" value="&lt;font style=&quot;font-size: 5px&quot;&gt;InstIF&lt;/font&gt;" style="edgeLabel;html=1;align=center;verticalAlign=middle;resizable=0;points=[];fontSize=6;fontColor=#000000;" parent="3WGhXrrfseAbKHN0i4dS-237" vertex="1" connectable="0">
          <mxGeometry x="-0.4055" relative="1" as="geometry">
            <mxPoint as="offset" />
          </mxGeometry>
        </mxCell>
        <mxCell id="gq7fBsmWnAXoDukaiIT1-5" value="&lt;p style=&quot;line-height: 1&quot;&gt;&lt;font face=&quot;Comic Sans MS&quot;&gt;MUX&lt;/font&gt;&lt;/p&gt;" style="strokeWidth=2;html=1;shape=mxgraph.flowchart.terminator;whiteSpace=wrap;rotation=90;" vertex="1" parent="1">
          <mxGeometry x="344" y="570" width="50" height="20" as="geometry" />
        </mxCell>
        <mxCell id="gq7fBsmWnAXoDukaiIT1-6" value="" style="endArrow=blockThin;html=1;rounded=1;entryX=0.11;entryY=0.89;entryDx=0;entryDy=0;entryPerimeter=0;startArrow=none;endFill=1;" edge="1" parent="1" source="gq7fBsmWnAXoDukaiIT1-7" target="gq7fBsmWnAXoDukaiIT1-5">
          <mxGeometry width="50" height="50" relative="1" as="geometry">
            <mxPoint x="340" y="440" as="sourcePoint" />
            <mxPoint x="420" y="500" as="targetPoint" />
            <Array as="points">
              <mxPoint x="340" y="561" />
            </Array>
          </mxGeometry>
        </mxCell>
        <mxCell id="gq7fBsmWnAXoDukaiIT1-7" value="" style="shape=waypoint;sketch=0;size=6;pointerEvents=1;points=[];fillColor=none;resizable=0;rotatable=0;perimeter=centerPerimeter;snapToPoint=1;fontSize=8;fontColor=#000000;strokeColor=#000000;align=left;" vertex="1" parent="1">
          <mxGeometry x="320" y="420" width="40" height="40" as="geometry" />
        </mxCell>
        <mxCell id="gq7fBsmWnAXoDukaiIT1-8" value="" style="endArrow=none;html=1;rounded=0;entryDx=0;entryDy=0;entryPerimeter=0;" edge="1" parent="1" target="gq7fBsmWnAXoDukaiIT1-7">
          <mxGeometry width="50" height="50" relative="1" as="geometry">
            <mxPoint x="340" y="440" as="sourcePoint" />
            <mxPoint x="357.1999999999998" y="560.5" as="targetPoint" />
            <Array as="points" />
          </mxGeometry>
        </mxCell>
        <mxCell id="gq7fBsmWnAXoDukaiIT1-11" value="" style="endArrow=classic;html=1;rounded=0;exitX=1;exitY=0.5;exitDx=0;exitDy=0;entryX=0;entryY=0.25;entryDx=0;entryDy=0;" edge="1" parent="1" source="3WGhXrrfseAbKHN0i4dS-10" target="3WGhXrrfseAbKHN0i4dS-14">
          <mxGeometry width="50" height="50" relative="1" as="geometry">
            <mxPoint x="340" y="560" as="sourcePoint" />
            <mxPoint x="390" y="510" as="targetPoint" />
            <Array as="points">
              <mxPoint x="530" y="336" />
              <mxPoint x="530" y="358" />
            </Array>
          </mxGeometry>
        </mxCell>
        <mxCell id="gq7fBsmWnAXoDukaiIT1-12" value="" style="endArrow=blockThin;html=1;rounded=0;exitX=1;exitY=0.75;exitDx=0;exitDy=0;fillColor=#dae8fc;strokeColor=#6c8ebf;entryX=0;entryY=0.5;entryDx=0;entryDy=0;entryPerimeter=0;endFill=1;" edge="1" parent="1" source="3WGhXrrfseAbKHN0i4dS-10" target="gq7fBsmWnAXoDukaiIT1-5">
          <mxGeometry width="50" height="50" relative="1" as="geometry">
            <mxPoint x="340" y="560" as="sourcePoint" />
            <mxPoint x="370" y="343" as="targetPoint" />
            <Array as="points">
              <mxPoint x="369" y="343" />
            </Array>
          </mxGeometry>
        </mxCell>
        <mxCell id="gq7fBsmWnAXoDukaiIT1-13" value="&lt;font style=&quot;font-size: 6px&quot;&gt;MemToRegMEM&lt;/font&gt;" style="edgeLabel;html=1;align=center;verticalAlign=middle;resizable=0;points=[];" vertex="1" connectable="0" parent="gq7fBsmWnAXoDukaiIT1-12">
          <mxGeometry x="0.6965" relative="1" as="geometry">
            <mxPoint y="-14" as="offset" />
          </mxGeometry>
        </mxCell>
        <mxCell id="gq7fBsmWnAXoDukaiIT1-14" value="" style="endArrow=blockThin;html=1;rounded=1;fontSize=6;entryX=0.5;entryY=1;entryDx=0;entryDy=0;entryPerimeter=0;endFill=1;" edge="1" parent="1" target="gq7fBsmWnAXoDukaiIT1-5">
          <mxGeometry width="50" height="50" relative="1" as="geometry">
            <mxPoint x="340" y="640" as="sourcePoint" />
            <mxPoint x="390" y="510" as="targetPoint" />
            <Array as="points">
              <mxPoint x="340" y="580" />
            </Array>
          </mxGeometry>
        </mxCell>
        <mxCell id="gq7fBsmWnAXoDukaiIT1-15" value="" style="endArrow=blockThin;html=1;rounded=0;fontSize=6;entryX=0.89;entryY=0.89;entryDx=0;entryDy=0;entryPerimeter=0;endFill=1;" edge="1" parent="1" target="gq7fBsmWnAXoDukaiIT1-5">
          <mxGeometry width="50" height="50" relative="1" as="geometry">
            <mxPoint x="320" y="690" as="sourcePoint" />
            <mxPoint x="390" y="510" as="targetPoint" />
            <Array as="points">
              <mxPoint x="320" y="600" />
            </Array>
          </mxGeometry>
        </mxCell>
        <mxCell id="gq7fBsmWnAXoDukaiIT1-16" value="" style="shape=waypoint;sketch=0;size=6;pointerEvents=1;points=[];fillColor=none;resizable=0;rotatable=0;perimeter=centerPerimeter;snapToPoint=1;fontSize=8;fontColor=#000000;strokeColor=#000000;align=left;" vertex="1" parent="1">
          <mxGeometry x="320" y="621" width="40" height="40" as="geometry" />
        </mxCell>
        <mxCell id="gq7fBsmWnAXoDukaiIT1-19" value="" style="shape=waypoint;sketch=0;size=6;pointerEvents=1;points=[];fillColor=none;resizable=0;rotatable=0;perimeter=centerPerimeter;snapToPoint=1;fontSize=8;fontColor=#000000;strokeColor=#000000;align=left;" vertex="1" parent="1">
          <mxGeometry x="300" y="669" width="40" height="40" as="geometry" />
        </mxCell>
        <mxCell id="gq7fBsmWnAXoDukaiIT1-20" value="" style="endArrow=blockThin;html=1;rounded=1;fontSize=6;exitX=0.5;exitY=0;exitDx=0;exitDy=0;exitPerimeter=0;entryX=0.5;entryY=1;entryDx=0;entryDy=0;entryPerimeter=0;endFill=1;" edge="1" parent="1" source="gq7fBsmWnAXoDukaiIT1-5" target="gq7fBsmWnAXoDukaiIT1-26">
          <mxGeometry width="50" height="50" relative="1" as="geometry">
            <mxPoint x="340" y="560" as="sourcePoint" />
            <mxPoint x="80" y="530" as="targetPoint" />
            <Array as="points">
              <mxPoint x="390" y="580" />
              <mxPoint x="390" y="780" />
              <mxPoint x="80" y="780" />
              <mxPoint x="80" y="517" />
            </Array>
          </mxGeometry>
        </mxCell>
        <mxCell id="gq7fBsmWnAXoDukaiIT1-37" value="WriteRegDataMEM" style="edgeLabel;html=1;align=center;verticalAlign=middle;resizable=0;points=[];fontSize=6;" vertex="1" connectable="0" parent="gq7fBsmWnAXoDukaiIT1-20">
          <mxGeometry x="-0.7814" y="1" relative="1" as="geometry">
            <mxPoint as="offset" />
          </mxGeometry>
        </mxCell>
        <mxCell id="gq7fBsmWnAXoDukaiIT1-23" value="MUX" style="strokeWidth=2;html=1;shape=mxgraph.flowchart.terminator;whiteSpace=wrap;rotation=90;" vertex="1" parent="1">
          <mxGeometry x="89.99999999999994" y="567" width="50" height="20" as="geometry" />
        </mxCell>
        <mxCell id="gq7fBsmWnAXoDukaiIT1-25" value="" style="endArrow=blockThin;html=1;rounded=0;fontSize=6;exitX=0.5;exitY=0;exitDx=0;exitDy=0;exitPerimeter=0;entryX=0;entryY=0.75;entryDx=0;entryDy=0;endFill=1;" edge="1" parent="1" source="gq7fBsmWnAXoDukaiIT1-23" target="3WGhXrrfseAbKHN0i4dS-106">
          <mxGeometry width="50" height="50" relative="1" as="geometry">
            <mxPoint x="70" y="590" as="sourcePoint" />
            <mxPoint x="120" y="540" as="targetPoint" />
            <Array as="points">
              <mxPoint x="140" y="577" />
              <mxPoint x="140" y="558" />
            </Array>
          </mxGeometry>
        </mxCell>
        <mxCell id="gq7fBsmWnAXoDukaiIT1-26" value="MUX" style="strokeWidth=2;html=1;shape=mxgraph.flowchart.terminator;whiteSpace=wrap;rotation=90;" vertex="1" parent="1">
          <mxGeometry x="89.99999999999994" y="507" width="50" height="20" as="geometry" />
        </mxCell>
        <mxCell id="gq7fBsmWnAXoDukaiIT1-31" value="" style="endArrow=blockThin;html=1;rounded=0;fontSize=6;exitX=0.5;exitY=0;exitDx=0;exitDy=0;exitPerimeter=0;entryX=0;entryY=0.25;entryDx=0;entryDy=0;endFill=1;" edge="1" parent="1" source="gq7fBsmWnAXoDukaiIT1-26" target="3WGhXrrfseAbKHN0i4dS-106">
          <mxGeometry width="50" height="50" relative="1" as="geometry">
            <mxPoint x="250" y="610" as="sourcePoint" />
            <mxPoint x="300" y="560" as="targetPoint" />
            <Array as="points">
              <mxPoint x="140" y="517" />
              <mxPoint x="140" y="532" />
            </Array>
          </mxGeometry>
        </mxCell>
        <mxCell id="gq7fBsmWnAXoDukaiIT1-32" value="" style="endArrow=blockThin;html=1;rounded=0;fontSize=6;entryX=0.89;entryY=0.89;entryDx=0;entryDy=0;entryPerimeter=0;endFill=1;" edge="1" parent="1" target="gq7fBsmWnAXoDukaiIT1-26">
          <mxGeometry width="50" height="50" relative="1" as="geometry">
            <mxPoint x="70" y="810" as="sourcePoint" />
            <mxPoint x="70" y="510" as="targetPoint" />
            <Array as="points">
              <mxPoint x="70" y="537" />
            </Array>
          </mxGeometry>
        </mxCell>
        <mxCell id="gq7fBsmWnAXoDukaiIT1-33" value="" style="endArrow=blockThin;html=1;rounded=0;fontSize=6;entryX=0.5;entryY=1;entryDx=0;entryDy=0;entryPerimeter=0;endFill=1;" edge="1" parent="1" target="gq7fBsmWnAXoDukaiIT1-23">
          <mxGeometry width="50" height="50" relative="1" as="geometry">
            <mxPoint x="80" y="577" as="sourcePoint" />
            <mxPoint x="170" y="620" as="targetPoint" />
          </mxGeometry>
        </mxCell>
        <mxCell id="gq7fBsmWnAXoDukaiIT1-34" value="" style="endArrow=blockThin;html=1;rounded=0;fontSize=6;entryX=0.89;entryY=0.89;entryDx=0;entryDy=0;entryPerimeter=0;endFill=1;" edge="1" parent="1" target="gq7fBsmWnAXoDukaiIT1-23">
          <mxGeometry width="50" height="50" relative="1" as="geometry">
            <mxPoint x="70" y="597" as="sourcePoint" />
            <mxPoint x="160" y="620" as="targetPoint" />
          </mxGeometry>
        </mxCell>
        <mxCell id="gq7fBsmWnAXoDukaiIT1-35" value="" style="shape=waypoint;sketch=0;size=6;pointerEvents=1;points=[];fillColor=none;resizable=0;rotatable=0;perimeter=centerPerimeter;snapToPoint=1;fontSize=8;fontColor=#000000;strokeColor=#000000;align=left;" vertex="1" parent="1">
          <mxGeometry x="50" y="577" width="40" height="40" as="geometry" />
        </mxCell>
        <mxCell id="gq7fBsmWnAXoDukaiIT1-36" value="" style="shape=waypoint;sketch=0;size=6;pointerEvents=1;points=[];fillColor=none;resizable=0;rotatable=0;perimeter=centerPerimeter;snapToPoint=1;fontSize=8;fontColor=#000000;strokeColor=#000000;align=left;" vertex="1" parent="1">
          <mxGeometry x="60" y="558" width="40" height="40" as="geometry" />
        </mxCell>
        <mxCell id="gq7fBsmWnAXoDukaiIT1-38" value="&lt;font style=&quot;font-size: 10px&quot; face=&quot;Comic Sans MS&quot;&gt;forwarding unit&lt;br&gt;&lt;/font&gt;" style="rounded=1;whiteSpace=wrap;html=1;fontSize=6;" vertex="1" parent="1">
          <mxGeometry x="95" y="830" width="80" height="50" as="geometry" />
        </mxCell>
        <mxCell id="gq7fBsmWnAXoDukaiIT1-39" value="" style="endArrow=blockThin;html=1;rounded=1;fontFamily=Comic Sans MS;fontSize=10;entryX=1;entryY=0.25;entryDx=0;entryDy=0;endFill=1;" edge="1" parent="1" target="gq7fBsmWnAXoDukaiIT1-38">
          <mxGeometry width="50" height="50" relative="1" as="geometry">
            <mxPoint x="330" y="730" as="sourcePoint" />
            <mxPoint x="200" y="570" as="targetPoint" />
            <Array as="points">
              <mxPoint x="330" y="843" />
            </Array>
          </mxGeometry>
        </mxCell>
        <mxCell id="gq7fBsmWnAXoDukaiIT1-40" value="" style="shape=waypoint;sketch=0;size=6;pointerEvents=1;points=[];fillColor=none;resizable=0;rotatable=0;perimeter=centerPerimeter;snapToPoint=1;fontSize=8;fontColor=#000000;strokeColor=#000000;align=left;" vertex="1" parent="1">
          <mxGeometry x="310" y="711" width="40" height="40" as="geometry" />
        </mxCell>
        <mxCell id="gq7fBsmWnAXoDukaiIT1-43" value="" style="endArrow=blockThin;html=1;rounded=1;fontFamily=Comic Sans MS;fontSize=10;entryX=1;entryY=0.5;entryDx=0;entryDy=0;endFill=1;" edge="1" parent="1" target="gq7fBsmWnAXoDukaiIT1-38">
          <mxGeometry width="50" height="50" relative="1" as="geometry">
            <mxPoint x="420" y="790" as="sourcePoint" />
            <mxPoint x="400" y="610" as="targetPoint" />
            <Array as="points">
              <mxPoint x="420" y="855" />
            </Array>
          </mxGeometry>
        </mxCell>
        <mxCell id="gq7fBsmWnAXoDukaiIT1-48" value="" style="endArrow=blockThin;html=1;rounded=1;fontFamily=Comic Sans MS;fontSize=10;entryX=0;entryY=0.968;entryDx=0;entryDy=0;entryPerimeter=0;endFill=1;" edge="1" parent="1" target="3WGhXrrfseAbKHN0i4dS-8">
          <mxGeometry width="50" height="50" relative="1" as="geometry">
            <mxPoint x="-179" y="536" as="sourcePoint" />
            <mxPoint x="-179" y="586" as="targetPoint" />
            <Array as="points">
              <mxPoint x="-179" y="758" />
            </Array>
          </mxGeometry>
        </mxCell>
        <mxCell id="gq7fBsmWnAXoDukaiIT1-49" value="" style="shape=waypoint;sketch=0;size=6;pointerEvents=1;points=[];fillColor=none;resizable=0;rotatable=0;perimeter=centerPerimeter;snapToPoint=1;fontSize=8;fontColor=#000000;strokeColor=#000000;align=left;" vertex="1" parent="1">
          <mxGeometry x="50" y="790" width="40" height="40" as="geometry" />
        </mxCell>
        <mxCell id="gq7fBsmWnAXoDukaiIT1-50" value="" style="endArrow=blockThin;html=1;rounded=1;fontFamily=Comic Sans MS;fontSize=10;entryX=0;entryY=0.938;entryDx=0;entryDy=0;entryPerimeter=0;endFill=1;" edge="1" parent="1" target="3WGhXrrfseAbKHN0i4dS-8">
          <mxGeometry width="50" height="50" relative="1" as="geometry">
            <mxPoint x="-170" y="520" as="sourcePoint" />
            <mxPoint x="40" y="640" as="targetPoint" />
            <Array as="points">
              <mxPoint x="-170" y="746" />
            </Array>
          </mxGeometry>
        </mxCell>
        <mxCell id="gq7fBsmWnAXoDukaiIT1-51" value="" style="shape=waypoint;sketch=0;size=6;pointerEvents=1;points=[];fillColor=none;resizable=0;rotatable=0;perimeter=centerPerimeter;snapToPoint=1;fontSize=8;fontColor=#000000;strokeColor=#000000;align=left;" vertex="1" parent="1">
          <mxGeometry x="-190" y="499" width="40" height="40" as="geometry" />
        </mxCell>
        <mxCell id="gq7fBsmWnAXoDukaiIT1-52" value="" style="shape=waypoint;sketch=0;size=6;pointerEvents=1;points=[];fillColor=none;resizable=0;rotatable=0;perimeter=centerPerimeter;snapToPoint=1;fontSize=8;fontColor=#000000;strokeColor=#000000;align=left;" vertex="1" parent="1">
          <mxGeometry x="-199" y="516" width="40" height="40" as="geometry" />
        </mxCell>
        <mxCell id="gq7fBsmWnAXoDukaiIT1-53" value="" style="endArrow=blockThin;html=1;rounded=1;fontFamily=Comic Sans MS;fontSize=10;entryX=0;entryY=0.25;entryDx=0;entryDy=0;endFill=1;" edge="1" parent="1" target="gq7fBsmWnAXoDukaiIT1-38">
          <mxGeometry width="50" height="50" relative="1" as="geometry">
            <mxPoint x="10" y="747" as="sourcePoint" />
            <mxPoint x="50" y="760" as="targetPoint" />
            <Array as="points">
              <mxPoint x="40" y="747" />
              <mxPoint x="40" y="843" />
            </Array>
          </mxGeometry>
        </mxCell>
        <mxCell id="gq7fBsmWnAXoDukaiIT1-54" value="" style="endArrow=blockThin;html=1;rounded=1;fontFamily=Comic Sans MS;fontSize=10;exitX=0.96;exitY=0.969;exitDx=0;exitDy=0;exitPerimeter=0;entryX=0;entryY=0.75;entryDx=0;entryDy=0;endFill=1;" edge="1" parent="1" source="3WGhXrrfseAbKHN0i4dS-8" target="gq7fBsmWnAXoDukaiIT1-38">
          <mxGeometry width="50" height="50" relative="1" as="geometry">
            <mxPoint x="-210" y="740" as="sourcePoint" />
            <mxPoint x="-160" y="690" as="targetPoint" />
            <Array as="points">
              <mxPoint x="30" y="758" />
              <mxPoint x="30" y="868" />
            </Array>
          </mxGeometry>
        </mxCell>
        <mxCell id="gq7fBsmWnAXoDukaiIT1-58" value="" style="endArrow=blockThin;html=1;rounded=1;fontFamily=Comic Sans MS;fontSize=10;entryX=1;entryY=0.75;entryDx=0;entryDy=0;fillColor=#dae8fc;strokeColor=#6c8ebf;endFill=1;" edge="1" parent="1" target="gq7fBsmWnAXoDukaiIT1-38">
          <mxGeometry width="50" height="50" relative="1" as="geometry">
            <mxPoint x="690" y="358" as="sourcePoint" />
            <mxPoint x="684" y="820" as="targetPoint" />
            <Array as="points">
              <mxPoint x="690" y="868" />
            </Array>
          </mxGeometry>
        </mxCell>
        <mxCell id="gq7fBsmWnAXoDukaiIT1-59" value="" style="shape=waypoint;sketch=0;size=6;pointerEvents=1;points=[];fillColor=#dae8fc;resizable=0;rotatable=0;perimeter=centerPerimeter;snapToPoint=1;fontSize=8;strokeColor=#6c8ebf;align=left;" vertex="1" parent="1">
          <mxGeometry x="669.52" y="338" width="40" height="40" as="geometry" />
        </mxCell>
        <mxCell id="gq7fBsmWnAXoDukaiIT1-62" value="" style="endArrow=blockThin;html=1;rounded=1;fontFamily=Comic Sans MS;fontSize=10;exitX=1;exitY=0.25;exitDx=0;exitDy=0;entryX=1;entryY=0;entryDx=0;entryDy=0;endFill=1;fillColor=#dae8fc;strokeColor=#6c8ebf;" edge="1" parent="1" source="3WGhXrrfseAbKHN0i4dS-10" target="gq7fBsmWnAXoDukaiIT1-38">
          <mxGeometry width="50" height="50" relative="1" as="geometry">
            <mxPoint x="400" y="520" as="sourcePoint" />
            <mxPoint x="400" y="760" as="targetPoint" />
            <Array as="points">
              <mxPoint x="400" y="329" />
              <mxPoint x="400" y="830" />
            </Array>
          </mxGeometry>
        </mxCell>
        <mxCell id="gq7fBsmWnAXoDukaiIT1-69" value="&lt;font style=&quot;font-size: 6px&quot;&gt;RegWriteMEM&lt;/font&gt;" style="edgeLabel;html=1;align=center;verticalAlign=middle;resizable=0;points=[];fontSize=10;fontFamily=Comic Sans MS;" vertex="1" connectable="0" parent="gq7fBsmWnAXoDukaiIT1-62">
          <mxGeometry x="-0.6939" y="1" relative="1" as="geometry">
            <mxPoint x="-17" y="-1" as="offset" />
          </mxGeometry>
        </mxCell>
        <mxCell id="gq7fBsmWnAXoDukaiIT1-63" value="" style="shape=waypoint;sketch=0;size=6;pointerEvents=1;points=[];fillColor=none;resizable=0;rotatable=0;perimeter=centerPerimeter;snapToPoint=1;fontSize=8;fontColor=#000000;strokeColor=#000000;align=left;" vertex="1" parent="1">
          <mxGeometry x="400" y="769" width="40" height="40" as="geometry" />
        </mxCell>
        <mxCell id="gq7fBsmWnAXoDukaiIT1-67" value="" style="endArrow=blockThin;html=1;rounded=1;fontFamily=Comic Sans MS;fontSize=10;exitX=0.25;exitY=0;exitDx=0;exitDy=0;entryX=1;entryY=0.5;entryDx=0;entryDy=0;entryPerimeter=0;fillColor=#dae8fc;strokeColor=#6c8ebf;endFill=1;" edge="1" parent="1" source="gq7fBsmWnAXoDukaiIT1-38" target="gq7fBsmWnAXoDukaiIT1-23">
          <mxGeometry width="50" height="50" relative="1" as="geometry">
            <mxPoint x="370" y="670" as="sourcePoint" />
            <mxPoint x="420" y="620" as="targetPoint" />
            <Array as="points">
              <mxPoint x="115" y="820" />
            </Array>
          </mxGeometry>
        </mxCell>
        <mxCell id="gq7fBsmWnAXoDukaiIT1-71" value="SigRe2EX" style="edgeLabel;html=1;align=center;verticalAlign=middle;resizable=0;points=[];fontSize=6;fontFamily=Comic Sans MS;" vertex="1" connectable="0" parent="gq7fBsmWnAXoDukaiIT1-67">
          <mxGeometry x="0.3975" relative="1" as="geometry">
            <mxPoint as="offset" />
          </mxGeometry>
        </mxCell>
        <mxCell id="gq7fBsmWnAXoDukaiIT1-68" value="" style="endArrow=blockThin;html=1;rounded=1;fontFamily=Comic Sans MS;fontSize=10;entryX=0;entryY=0.5;entryDx=0;entryDy=0;entryPerimeter=0;exitX=0.5;exitY=0;exitDx=0;exitDy=0;endFill=1;fillColor=#dae8fc;strokeColor=#6c8ebf;" edge="1" parent="1" source="gq7fBsmWnAXoDukaiIT1-38" target="gq7fBsmWnAXoDukaiIT1-26">
          <mxGeometry width="50" height="50" relative="1" as="geometry">
            <mxPoint x="260" y="700" as="sourcePoint" />
            <mxPoint x="310" y="650" as="targetPoint" />
            <Array as="points">
              <mxPoint x="135" y="480" />
              <mxPoint x="115" y="480" />
            </Array>
          </mxGeometry>
        </mxCell>
        <mxCell id="gq7fBsmWnAXoDukaiIT1-70" value="SigRe1EX" style="edgeLabel;html=1;align=center;verticalAlign=middle;resizable=0;points=[];fontSize=6;fontFamily=Comic Sans MS;" vertex="1" connectable="0" parent="gq7fBsmWnAXoDukaiIT1-68">
          <mxGeometry x="0.1939" y="-2" relative="1" as="geometry">
            <mxPoint as="offset" />
          </mxGeometry>
        </mxCell>
        <mxCell id="gq7fBsmWnAXoDukaiIT1-74" value="&lt;p style=&quot;line-height: 1&quot;&gt;&lt;font face=&quot;Comic Sans MS&quot;&gt;MUX&lt;/font&gt;&lt;/p&gt;" style="strokeWidth=2;html=1;shape=mxgraph.flowchart.terminator;whiteSpace=wrap;rotation=90;" vertex="1" parent="1">
          <mxGeometry x="-100" y="325" width="66" height="20" as="geometry" />
        </mxCell>
        <mxCell id="gq7fBsmWnAXoDukaiIT1-75" value="" style="endArrow=blockThin;html=1;rounded=1;fontFamily=Comic Sans MS;fontSize=6;exitX=1;exitY=0.5;exitDx=0;exitDy=0;entryX=0.5;entryY=1;entryDx=0;entryDy=0;entryPerimeter=0;endFill=1;" edge="1" parent="1" source="3WGhXrrfseAbKHN0i4dS-68" target="gq7fBsmWnAXoDukaiIT1-74">
          <mxGeometry width="50" height="50" relative="1" as="geometry">
            <mxPoint x="40" y="400" as="sourcePoint" />
            <mxPoint x="90" y="350" as="targetPoint" />
          </mxGeometry>
        </mxCell>
        <mxCell id="gq7fBsmWnAXoDukaiIT1-76" value="" style="endArrow=blockThin;html=1;rounded=1;fontFamily=Comic Sans MS;fontSize=6;entryX=0.728;entryY=0.974;entryDx=0;entryDy=0;entryPerimeter=0;endFill=1;" edge="1" parent="1" target="gq7fBsmWnAXoDukaiIT1-74">
          <mxGeometry width="50" height="50" relative="1" as="geometry">
            <mxPoint x="-90" y="350" as="sourcePoint" />
            <mxPoint x="20" y="350" as="targetPoint" />
          </mxGeometry>
        </mxCell>
        <mxCell id="gq7fBsmWnAXoDukaiIT1-77" value="0" style="text;html=1;align=center;verticalAlign=middle;resizable=0;points=[];autosize=1;strokeColor=none;fillColor=none;fontSize=6;fontFamily=Comic Sans MS;" vertex="1" parent="1">
          <mxGeometry x="-102" y="347" width="20" height="10" as="geometry" />
        </mxCell>
        <mxCell id="gq7fBsmWnAXoDukaiIT1-78" value="&lt;font style=&quot;font-size: 13px&quot;&gt;Hazard &lt;br&gt;detection&lt;br&gt;Unit&lt;br&gt;&lt;/font&gt;" style="rounded=1;whiteSpace=wrap;html=1;fontFamily=Comic Sans MS;fontSize=6;" vertex="1" parent="1">
          <mxGeometry x="-228" y="150" width="120" height="60" as="geometry" />
        </mxCell>
        <mxCell id="gq7fBsmWnAXoDukaiIT1-80" value="" style="endArrow=blockThin;html=1;rounded=1;fontFamily=Comic Sans MS;fontSize=13;entryX=0.5;entryY=0;entryDx=0;entryDy=0;exitX=0;exitY=0.25;exitDx=0;exitDy=0;endFill=1;fillColor=#dae8fc;strokeColor=#6c8ebf;" edge="1" parent="1" source="gq7fBsmWnAXoDukaiIT1-78" target="3WGhXrrfseAbKHN0i4dS-27">
          <mxGeometry width="50" height="50" relative="1" as="geometry">
            <mxPoint x="-500" y="420" as="sourcePoint" />
            <mxPoint x="-450" y="370" as="targetPoint" />
            <Array as="points">
              <mxPoint x="-428" y="165" />
            </Array>
          </mxGeometry>
        </mxCell>
        <mxCell id="gq7fBsmWnAXoDukaiIT1-82" value="&lt;font style=&quot;font-size: 5px&quot;&gt;PcWrite&lt;/font&gt;" style="edgeLabel;html=1;align=center;verticalAlign=middle;resizable=0;points=[];fontSize=13;fontFamily=Comic Sans MS;" vertex="1" connectable="0" parent="gq7fBsmWnAXoDukaiIT1-80">
          <mxGeometry x="0.8729" y="-1" relative="1" as="geometry">
            <mxPoint as="offset" />
          </mxGeometry>
        </mxCell>
        <mxCell id="gq7fBsmWnAXoDukaiIT1-81" value="" style="endArrow=blockThin;html=1;rounded=1;fontFamily=Comic Sans MS;fontSize=13;entryX=0.5;entryY=0;entryDx=0;entryDy=0;exitX=0;exitY=0.5;exitDx=0;exitDy=0;fillColor=#dae8fc;strokeColor=#6c8ebf;endFill=1;" edge="1" parent="1" source="gq7fBsmWnAXoDukaiIT1-78" target="3WGhXrrfseAbKHN0i4dS-16">
          <mxGeometry width="50" height="50" relative="1" as="geometry">
            <mxPoint x="-290" y="200" as="sourcePoint" />
            <mxPoint x="-340" y="250" as="targetPoint" />
            <Array as="points">
              <mxPoint x="-251" y="180" />
            </Array>
          </mxGeometry>
        </mxCell>
        <mxCell id="gq7fBsmWnAXoDukaiIT1-83" value="IFIDWrite" style="edgeLabel;html=1;align=center;verticalAlign=middle;resizable=0;points=[];fontSize=5;fontFamily=Comic Sans MS;" vertex="1" connectable="0" parent="gq7fBsmWnAXoDukaiIT1-81">
          <mxGeometry x="0.4573" y="-2" relative="1" as="geometry">
            <mxPoint x="3" as="offset" />
          </mxGeometry>
        </mxCell>
        <mxCell id="gq7fBsmWnAXoDukaiIT1-84" value="" style="endArrow=blockThin;html=1;rounded=1;fontFamily=Comic Sans MS;fontSize=5;exitX=0.386;exitY=0.439;exitDx=0;exitDy=0;exitPerimeter=0;entryX=0.409;entryY=1.003;entryDx=0;entryDy=0;entryPerimeter=0;endFill=1;" edge="1" parent="1" source="gq7fBsmWnAXoDukaiIT1-52" target="gq7fBsmWnAXoDukaiIT1-78">
          <mxGeometry width="50" height="50" relative="1" as="geometry">
            <mxPoint x="-270" y="450" as="sourcePoint" />
            <mxPoint x="-220" y="400" as="targetPoint" />
          </mxGeometry>
        </mxCell>
        <mxCell id="gq7fBsmWnAXoDukaiIT1-85" value="" style="endArrow=blockThin;html=1;rounded=1;fontFamily=Comic Sans MS;fontSize=5;entryX=0.478;entryY=0.999;entryDx=0;entryDy=0;entryPerimeter=0;endFill=1;" edge="1" parent="1" source="gq7fBsmWnAXoDukaiIT1-51" target="gq7fBsmWnAXoDukaiIT1-78">
          <mxGeometry width="50" height="50" relative="1" as="geometry">
            <mxPoint x="-280" y="390" as="sourcePoint" />
            <mxPoint x="-230" y="340" as="targetPoint" />
          </mxGeometry>
        </mxCell>
        <mxCell id="gq7fBsmWnAXoDukaiIT1-86" value="" style="endArrow=blockThin;html=1;rounded=1;fontFamily=Comic Sans MS;fontSize=5;exitX=1;exitY=0.25;exitDx=0;exitDy=0;entryX=1;entryY=0.5;entryDx=0;entryDy=0;fillColor=#dae8fc;strokeColor=#6c8ebf;endFill=1;" edge="1" parent="1" source="3WGhXrrfseAbKHN0i4dS-6" target="gq7fBsmWnAXoDukaiIT1-78">
          <mxGeometry width="50" height="50" relative="1" as="geometry">
            <mxPoint x="-140" y="450" as="sourcePoint" />
            <mxPoint x="-90" y="400" as="targetPoint" />
            <Array as="points">
              <mxPoint x="50" y="298" />
              <mxPoint x="50" y="180" />
            </Array>
          </mxGeometry>
        </mxCell>
        <mxCell id="gq7fBsmWnAXoDukaiIT1-88" value="&lt;font style=&quot;font-size: 6px&quot;&gt;MemToRegEX&lt;/font&gt;" style="edgeLabel;html=1;align=center;verticalAlign=middle;resizable=0;points=[];fontSize=5;fontFamily=Comic Sans MS;" vertex="1" connectable="0" parent="gq7fBsmWnAXoDukaiIT1-86">
          <mxGeometry x="0.7812" y="1" relative="1" as="geometry">
            <mxPoint x="16" y="-2" as="offset" />
          </mxGeometry>
        </mxCell>
        <mxCell id="gq7fBsmWnAXoDukaiIT1-89" value="" style="endArrow=blockThin;html=1;rounded=1;fontFamily=Comic Sans MS;fontSize=6;exitX=1;exitY=0.75;exitDx=0;exitDy=0;entryX=0;entryY=0.5;entryDx=0;entryDy=0;entryPerimeter=0;fillColor=#dae8fc;strokeColor=#6c8ebf;endFill=1;" edge="1" parent="1" source="gq7fBsmWnAXoDukaiIT1-78" target="gq7fBsmWnAXoDukaiIT1-74">
          <mxGeometry width="50" height="50" relative="1" as="geometry">
            <mxPoint x="-160" y="420" as="sourcePoint" />
            <mxPoint x="-110" y="370" as="targetPoint" />
            <Array as="points">
              <mxPoint x="-67" y="195" />
            </Array>
          </mxGeometry>
        </mxCell>
        <mxCell id="gq7fBsmWnAXoDukaiIT1-90" value="SigClear" style="edgeLabel;html=1;align=center;verticalAlign=middle;resizable=0;points=[];fontSize=6;fontFamily=Comic Sans MS;" vertex="1" connectable="0" parent="gq7fBsmWnAXoDukaiIT1-89">
          <mxGeometry x="-0.2339" y="1" relative="1" as="geometry">
            <mxPoint as="offset" />
          </mxGeometry>
        </mxCell>
      </root>
    </mxGraphModel>
  </diagram>
</mxfile>
